<svg width="16" height="15" viewBox="0 0 16 15" fill="none" xmlns="http://www.w3.org/2000/svg">
<path d="M14.5625 4.33435H12.9492C13.1406 4.00623 13.25 3.65076 13.25 3.2406C13.25 1.9281 12.1562 0.834351 10.8438 0.834351C9.69531 0.834351 8.95703 1.43591 8 2.72107C7.07031 1.43591 6.33203 0.834351 5.18359 0.834351C3.87109 0.834351 2.77734 1.9281 2.77734 3.2406C2.77734 3.65076 2.88672 4.00623 3.07812 4.33435H1.4375C0.699219 4.33435 0.125 4.93591 0.125 5.64685V13.5219C0.125 14.2601 0.699219 14.8344 1.4375 14.8344H14.5625C15.2734 14.8344 15.875 14.2601 15.875 13.5219V5.64685C15.875 4.93591 15.2734 4.33435 14.5625 4.33435ZM10.8438 2.14685C11.4453 2.14685 11.9375 2.63904 11.9375 3.2406C11.9375 3.86951 11.4453 4.33435 10.8438 4.33435H8.46484C9.88672 2.25623 10.2695 2.14685 10.8438 2.14685ZM4.08984 3.2406C4.08984 2.63904 4.58203 2.14685 5.18359 2.14685C5.73047 2.14685 6.14062 2.25623 7.5625 4.33435H5.18359C4.58203 4.33435 4.08984 3.86951 4.08984 3.2406ZM5.75781 6.08435L4.77344 7.06873C4.60938 7.23279 4.60938 7.53357 4.77344 7.69763L5.07422 7.99841C5.23828 8.16248 5.53906 8.16248 5.70312 7.99841L7.58984 6.08435H8.38281L10.2695 7.99841C10.4336 8.16248 10.7344 8.16248 10.8984 7.99841L11.1992 7.69763C11.3633 7.53357 11.3633 7.23279 11.1992 7.06873L10.2148 6.08435H14.125V9.58435H1.875V6.08435H5.75781ZM1.875 13.0844V11.3344H14.125V13.0844H1.875Z" fill="url(#paint0_linear)"/>
<defs>
<linearGradient id="paint0_linear" x1="5.5" y1="17.9314" x2="-0.104546" y2="1.15788" gradientUnits="userSpaceOnUse">
<stop stop-color="#1A9561"/>
<stop offset="1" stop-color="#25C984"/>
</linearGradient>
</defs>
</svg>
