<svg width="20" height="12" viewBox="0 0 20 12" fill="none" xmlns="http://www.w3.org/2000/svg">
<path d="M19 0H1C0.4375 0 0 0.46875 0 1V11C0 11.5625 0.4375 12 1 12H19C19.5312 12 20 11.5625 20 11V1C20 0.46875 19.5312 0 19 0ZM18.5 8.5C17.375 8.5 16.5 9.40625 16.5 10.5H3.5C3.5 9.40625 2.59375 8.5 1.5 8.5V3.5C2.59375 3.5 3.5 2.625 3.5 1.5H16.5C16.5 2.625 17.375 3.5 18.5 3.5V8.5ZM10 3C8.59375 3 7.5 4.34375 7.5 6C7.5 7.6875 8.59375 9 10 9C11.375 9 12.5 7.6875 12.5 6C12.5 4.34375 11.375 3 10 3Z" fill="#C2CFE0"/>
</svg>
