<svg width="11" height="15" viewBox="0 0 11 15" fill="none" xmlns="http://www.w3.org/2000/svg">
<path d="M9.78906 0.859375L8.75 2.0625L7.24609 0.859375C7.19141 0.804688 7.05469 0.75 7 0.75C6.91797 0.75 6.78125 0.804688 6.72656 0.859375L5.25 2.0625L3.74609 0.859375C3.69141 0.804688 3.55469 0.75 3.5 0.75C3.41797 0.75 3.28125 0.804688 3.22656 0.859375L1.75 2.0625L0.683594 0.859375C0.410156 0.640625 0 0.832031 0 1.1875V14.3125C0 14.6953 0.410156 14.8867 0.683594 14.668L1.75 13.4375L3.22656 14.668C3.28125 14.7227 3.41797 14.7773 3.5 14.7773C3.55469 14.7773 3.69141 14.7227 3.74609 14.668L5.25 13.4375L6.72656 14.668C6.78125 14.7227 6.91797 14.7773 7 14.7773C7.05469 14.7773 7.19141 14.7227 7.24609 14.668L8.75 13.4375L9.78906 14.668C10.0625 14.8867 10.5 14.6953 10.5 14.3125V1.1875C10.5 0.832031 10.0898 0.640625 9.78906 0.859375ZM8.75 10.5938C8.75 10.7305 8.64062 10.8125 8.53125 10.8125H1.96875C1.83203 10.8125 1.75 10.7305 1.75 10.5938V10.1562C1.75 10.0469 1.83203 9.9375 1.96875 9.9375H8.53125C8.64062 9.9375 8.75 10.0469 8.75 10.1562V10.5938ZM8.75 7.96875C8.75 8.10547 8.64062 8.1875 8.53125 8.1875H1.96875C1.83203 8.1875 1.75 8.10547 1.75 7.96875V7.53125C1.75 7.42188 1.83203 7.3125 1.96875 7.3125H8.53125C8.64062 7.3125 8.75 7.42188 8.75 7.53125V7.96875ZM8.75 5.34375C8.75 5.48047 8.64062 5.5625 8.53125 5.5625H1.96875C1.83203 5.5625 1.75 5.48047 1.75 5.34375V4.90625C1.75 4.79688 1.83203 4.6875 1.96875 4.6875H8.53125C8.64062 4.6875 8.75 4.79688 8.75 4.90625V5.34375Z" fill="#687C86"/>
</svg>
