<svg width="18" height="15" viewBox="0 0 18 15" fill="none" xmlns="http://www.w3.org/2000/svg">
<path d="M17.5 7.96875V7.53125C17.5 7.3125 17.2812 7.09375 17.0625 7.09375H9.40625V6H11.375C11.8398 6 12.25 5.61719 12.25 5.125V1.625C12.25 1.16016 11.8398 0.75 11.375 0.75H6.125C5.63281 0.75 5.25 1.16016 5.25 1.625V5.125C5.25 5.61719 5.63281 6 6.125 6H8.09375V7.09375H0.4375C0.191406 7.09375 0 7.3125 0 7.53125V7.96875C0 8.21484 0.191406 8.40625 0.4375 8.40625H3.28125V9.5H1.75C1.25781 9.5 0.875 9.91016 0.875 10.375V13.875C0.875 14.3672 1.25781 14.75 1.75 14.75H6.125C6.58984 14.75 7 14.3672 7 13.875V10.375C7 9.91016 6.58984 9.5 6.125 9.5H4.59375V8.40625H12.9062V9.5H11.375C10.8828 9.5 10.5 9.91016 10.5 10.375V13.875C10.5 14.3672 10.8828 14.75 11.375 14.75H15.75C16.2148 14.75 16.625 14.3672 16.625 13.875V10.375C16.625 9.91016 16.2148 9.5 15.75 9.5H14.2188V8.40625H17.0625C17.2812 8.40625 17.5 8.21484 17.5 7.96875ZM7 4.25V2.5H10.5V4.25H7ZM5.25 13H2.625V11.25H5.25V13ZM14.875 13H12.25V11.25H14.875V13Z" fill="#687C86"/>
</svg>
