<svg width="20" height="20" viewBox="0 0 20 20" fill="none" xmlns="http://www.w3.org/2000/svg">
<path d="M2.50033 3.2H16.667C16.7387 3.2 16.8003 3.2616 16.8003 3.33333V8.33333C16.8003 8.40507 16.7387 8.46667 16.667 8.46667H2.50033C2.42859 8.46667 2.36699 8.40507 2.36699 8.33333V3.33333C2.36699 3.2616 2.42859 3.2 2.50033 3.2ZM2.50033 11.5333H16.667C16.7387 11.5333 16.8003 11.5949 16.8003 11.6667V16.6667C16.8003 16.7384 16.7387 16.8 16.667 16.8H2.50033C2.42859 16.8 2.36699 16.7384 2.36699 16.6667V11.6667C2.36699 11.5949 2.42859 11.5333 2.50033 11.5333Z" stroke="#C2CFE0" stroke-width="1.4"/>
</svg>
