<svg width="16" height="15" viewBox="0 0 16 15" fill="none" xmlns="http://www.w3.org/2000/svg">
<path d="M11.5 6.97241V2.59741C11.5 1.64038 10.707 0.847412 9.75 0.847412H1.875C0.890625 0.847412 0.125 1.64038 0.125 2.59741V6.97241C0.125 7.95679 0.890625 8.72241 1.875 8.72241V10.2263C1.875 10.4451 2.12109 10.5544 2.28516 10.4451L4.55469 8.72241H9.75C10.707 8.72241 11.5 7.95679 11.5 6.97241ZM6.25 6.97241V7.40991C6.25 7.54663 6.14062 7.62866 6.03125 7.62866H5.59375C5.45703 7.62866 5.375 7.54663 5.375 7.40991V6.97241C5.04688 6.97241 4.74609 6.86304 4.5 6.67163C4.39062 6.5896 4.39062 6.42554 4.5 6.34351L4.80078 6.04272C4.88281 5.96069 4.99219 5.96069 5.07422 6.01538C5.18359 6.07007 5.32031 6.09741 5.42969 6.09741H6.19531C6.38672 6.09741 6.52344 5.96069 6.52344 5.74194C6.52344 5.57788 6.44141 5.44116 6.27734 5.41382L5.04688 5.03101C4.55469 4.86694 4.19922 4.4021 4.19922 3.85522C4.19922 3.17163 4.71875 2.62476 5.34766 2.62476V2.15991C5.34766 2.05054 5.45703 1.94116 5.56641 1.94116H6.00391C6.14062 1.94116 6.22266 2.05054 6.22266 2.15991V2.62476C6.55078 2.62476 6.85156 2.73413 7.09766 2.92554C7.20703 3.00757 7.20703 3.17163 7.09766 3.25366L6.79688 3.55444C6.71484 3.63647 6.60547 3.63647 6.52344 3.58179C6.41406 3.5271 6.27734 3.47241 6.16797 3.47241H5.40234C5.21094 3.47241 5.07422 3.63647 5.07422 3.85522C5.07422 4.01929 5.15625 4.15601 5.32031 4.18335L6.55078 4.56616C7.04297 4.70288 7.39844 5.19507 7.39844 5.74194C7.39844 6.42554 6.87891 6.97241 6.25 6.97241ZM14.125 5.22241H12.375V6.97241C12.375 8.42163 11.1719 9.59741 9.75 9.59741H5.375V11.3474C5.375 12.3318 6.14062 13.0974 7.125 13.0974H10.543L12.8125 14.8201C12.9766 14.9294 13.25 14.8201 13.25 14.6013V13.0974H14.125C15.082 13.0974 15.875 12.3318 15.875 11.3474V6.97241C15.875 6.01538 15.082 5.22241 14.125 5.22241Z" fill="#C2CFE0"/>
</svg>
