<svg width="18" height="16" viewBox="0 0 18 16" fill="none" xmlns="http://www.w3.org/2000/svg">
<path d="M16 5H13V2C13 0.90625 12.0938 0 11 0H2C0.875 0 0 0.90625 0 2V8.5C0 9.625 0.875 10.5 2 10.5H3V12.125C3 12.375 3.15625 12.5 3.375 12.5C3.4375 12.5 3.5 12.5 3.59375 12.4375L6 11.0938V12C6 13.125 6.875 14 8 14H11L14.375 15.9375C14.4688 16 14.5312 16 14.5938 16C14.8125 16 15 15.875 15 15.625V14H16C17.0938 14 18 13.125 18 12V7C18 5.90625 17.0938 5 16 5ZM6.25 9.21875L4.5 10.2188V9H2C1.71875 9 1.5 8.78125 1.5 8.5V2C1.5 1.75 1.71875 1.5 2 1.5H11C11.25 1.5 11.5 1.75 11.5 2V8.5C11.5 8.78125 11.25 9 11 9H6.59375L6.25 9.21875ZM16.5 12C16.5 12.2812 16.25 12.5 16 12.5H13.5V13.7188L11.7188 12.7188L11.375 12.5H8C7.71875 12.5 7.5 12.2812 7.5 12V10.5H11C12.0938 10.5 13 9.625 13 8.5V6.5H16C16.25 6.5 16.5 6.75 16.5 7V12ZM7.28125 4.96875L5.96875 4.59375C5.8125 4.5625 5.75 4.46875 5.75 4.34375C5.75 4.1875 5.875 4.0625 6.0625 4.0625H6.875C7 4.0625 7.125 4.09375 7.25 4.15625C7.34375 4.21875 7.46875 4.21875 7.53125 4.125L7.90625 3.71875C8 3.625 8 3.46875 7.875 3.375C7.625 3.21875 7.3125 3.09375 7 3.09375V2.75C7 2.625 6.875 2.5 6.75 2.5H6.25C6.09375 2.5 6 2.625 6 2.75V3.09375C5.28125 3.125 4.75 3.65625 4.75 4.34375C4.75 4.90625 5.125 5.40625 5.6875 5.5625L7 5.9375C7.15625 5.96875 7.25 6.0625 7.25 6.1875C7.25 6.34375 7.09375 6.46875 6.90625 6.46875H6.09375C5.96875 6.46875 5.84375 6.4375 5.71875 6.375C5.625 6.3125 5.5 6.3125 5.4375 6.40625L5.0625 6.8125C4.96875 6.90625 4.96875 7.0625 5.09375 7.15625C5.34375 7.3125 5.65625 7.4375 6 7.4375V7.75C6 7.90625 6.09375 8 6.25 8H6.75C6.875 8 7 7.90625 7 7.75V7.4375C7.6875 7.40625 8.25 6.875 8.25 6.1875C8.25 5.625 7.84375 5.125 7.28125 4.96875Z" fill="#C2CFE0"/>
</svg>
