<svg width="11" height="11" viewBox="0 0 11 11" fill="none" xmlns="http://www.w3.org/2000/svg">
<g clip-path="url(#clip0)">
<path d="M5.08535 0.895905C2.78535 0.895905 0.922852 2.76257 0.922852 5.06257C0.922852 7.36257 2.78535 9.22924 5.08535 9.22924C7.38952 9.22924 9.25619 7.36257 9.25619 5.06257C9.25619 2.76257 7.38952 0.895905 5.08535 0.895905ZM5.08952 8.39591C3.24785 8.39591 1.75618 6.90424 1.75618 5.06257C1.75618 3.2209 3.24785 1.72924 5.08952 1.72924C6.93119 1.72924 8.42285 3.2209 8.42285 5.06257C8.42285 6.90424 6.93119 8.39591 5.08952 8.39591Z" fill="#A4AFC1"/>
<path d="M5.29785 2.9791H4.67285V5.4791L6.86035 6.7916L7.17285 6.2791L5.29785 5.1666V2.9791Z" fill="#A4AFC1"/>
</g>
<defs>
<clipPath id="clip0">
<rect width="10" height="10" fill="white" transform="translate(0.0898438 0.0625)"/>
</clipPath>
</defs>
</svg>
