<svg width="21" height="20" viewBox="0 0 21 20" fill="none" xmlns="http://www.w3.org/2000/svg">
<g opacity="0.67">
<path d="M14.4375 10C15.645 10 16.6163 9.06667 16.6163 7.91667C16.6163 6.76667 15.645 5.83334 14.4375 5.83334C13.23 5.83334 12.25 6.76667 12.25 7.91667C12.25 9.06667 13.23 10 14.4375 10ZM7.875 9.16667C9.3275 9.16667 10.4913 8.05001 10.4913 6.66667C10.4913 5.28334 9.3275 4.16667 7.875 4.16667C6.4225 4.16667 5.25 5.28334 5.25 6.66667C5.25 8.05001 6.4225 9.16667 7.875 9.16667ZM14.4375 11.6667C12.8363 11.6667 9.625 12.4333 9.625 13.9583V15.8333H19.25V13.9583C19.25 12.4333 16.0387 11.6667 14.4375 11.6667ZM7.875 10.8333C5.83625 10.8333 1.75 11.8083 1.75 13.75V15.8333H7.875V13.9583C7.875 13.25 8.16375 12.0083 9.94875 11.0667C9.1875 10.9167 8.4525 10.8333 7.875 10.8333Z" fill="white"/>
</g>
</svg>
