<svg width="17" height="17" viewBox="0 0 17 17" fill="none" xmlns="http://www.w3.org/2000/svg">
<path d="M13.377 8.7507C12.9395 8.7507 12.627 9.09445 12.627 9.5007C12.627 9.9382 12.9395 10.2507 13.377 10.2507C13.7832 10.2507 14.127 9.9382 14.127 9.5007C14.127 9.09445 13.7832 8.7507 13.377 8.7507ZM14.377 6.0007V3.6257C14.377 3.2507 14.1895 2.84445 13.9082 2.5632L12.3145 0.969452C12.0332 0.688202 11.627 0.500702 11.252 0.500702H4.31445C3.7832 0.500702 3.37695 0.969452 3.37695 1.5007V6.0007C1.9707 6.0007 0.876953 7.1257 0.876953 8.5007V12.5007C0.876953 12.782 1.0957 13.0007 1.37695 13.0007H3.37695V16.0007C3.37695 16.282 3.5957 16.5007 3.87695 16.5007H13.877C14.127 16.5007 14.377 16.282 14.377 16.0007V13.0007H16.377C16.627 13.0007 16.877 12.782 16.877 12.5007V8.5007C16.877 7.1257 15.752 6.0007 14.377 6.0007ZM4.87695 2.0007H10.877V3.5007C10.877 3.78195 11.0957 4.0007 11.377 4.0007H12.877V6.0007H4.87695V2.0007ZM12.877 15.0007H4.87695V13.0007H12.877V15.0007ZM15.377 11.5007H2.37695V8.5007C2.37695 7.96945 2.81445 7.5007 3.37695 7.5007H14.377C14.9082 7.5007 15.377 7.96945 15.377 8.5007V11.5007Z" fill="#C2CFE0"/>
</svg>
