<svg width="13" height="13" viewBox="0 0 13 13" fill="none" xmlns="http://www.w3.org/2000/svg">
<path d="M10.9375 0.625H1.3125C0.574219 0.625 0 1.22656 0 1.9375V11.5625C0 12.3008 0.574219 12.875 1.3125 12.875H10.9375C11.6484 12.875 12.25 12.3008 12.25 11.5625V1.9375C12.25 1.22656 11.6484 0.625 10.9375 0.625ZM6.78125 10.25V10.6875C6.78125 10.9336 6.5625 11.125 6.34375 11.125H5.90625C5.66016 11.125 5.46875 10.9336 5.46875 10.6875V10.25C5.00391 10.25 4.56641 10.0859 4.18359 9.83984C3.9375 9.67578 3.91016 9.34766 4.12891 9.15625L4.45703 8.85547C4.59375 8.71875 4.8125 8.69141 5.00391 8.80078C5.16797 8.91016 5.33203 8.9375 5.52344 8.9375H6.75391C7.08203 8.9375 7.32812 8.66406 7.32812 8.30859C7.32812 8.00781 7.16406 7.76172 6.91797 7.67969L4.94922 7.07812C4.15625 6.85938 3.58203 6.06641 3.58203 5.21875C3.58203 4.15234 4.42969 3.27734 5.46875 3.25V2.8125C5.46875 2.59375 5.66016 2.375 5.90625 2.375H6.34375C6.5625 2.375 6.78125 2.59375 6.78125 2.8125V3.27734C7.21875 3.27734 7.65625 3.41406 8.03906 3.6875C8.28516 3.85156 8.3125 4.17969 8.09375 4.37109L7.76562 4.67188C7.62891 4.80859 7.41016 4.83594 7.24609 4.72656C7.05469 4.61719 6.89062 4.5625 6.69922 4.5625H5.46875C5.14062 4.5625 4.89453 4.86328 4.89453 5.21875C4.89453 5.49219 5.05859 5.76562 5.30469 5.84766L7.27344 6.42188C8.06641 6.66797 8.64062 7.43359 8.64062 8.30859C8.64062 9.375 7.79297 10.25 6.78125 10.25Z" fill="#687C86"/>
</svg>
