<svg width="11" height="14" viewBox="0 0 11 14" fill="none" xmlns="http://www.w3.org/2000/svg">
<path d="M9.49292 10.876C8.79092 11.398 7.96292 11.686 6.90092 11.686C5.24492 11.686 3.66092 10.786 3.12092 8.608H8.23292V7.528H2.94092C2.92292 7.312 2.92292 7.096 2.92292 6.862C2.92292 6.61 2.94092 6.376 2.95892 6.142H8.23292V5.062H3.12092C3.64292 2.992 5.08292 1.948 6.90092 1.948C7.80092 1.948 8.62892 2.218 9.36692 2.722L10.2489 1.588C9.22292 0.868 8.07092 0.543999 6.90092 0.543999C4.05692 0.543999 2.07692 2.218 1.50092 5.062H0.330922V6.142H1.35692C1.33892 6.376 1.33892 6.61 1.33892 6.862C1.33892 7.096 1.33892 7.312 1.35692 7.528H0.330922V8.608H1.50092C2.11292 11.812 4.48892 13.108 6.90092 13.108C8.30492 13.108 9.43892 12.658 10.3389 12.028L9.49292 10.876Z" fill="url(#paint0_linear)"/>
<defs>
<linearGradient id="paint0_linear" x1="-2.90296e-07" y1="-8.47149" x2="17.0793" y2="6.36205" gradientUnits="userSpaceOnUse">
<stop stop-color="#00D2FF"/>
<stop offset="1" stop-color="#3A7BD5"/>
</linearGradient>
</defs>
</svg>
