<svg width="16" height="16" viewBox="0 0 16 16" fill="none" xmlns="http://www.w3.org/2000/svg">
<path d="M11.2817 12.25V13.5C11.2817 14.8785 10.1602 16 8.78164 16H2.50011C1.12151 16 0 14.8785 0 13.5V2.5C0 1.12146 1.12151 0 2.50011 0H8.78164C10.1602 0 11.2817 1.12146 11.2817 2.5V3.75C11.2817 4.09521 11.0019 4.375 10.6567 4.375C10.3115 4.375 10.0317 4.09521 10.0317 3.75V2.5C10.0317 1.81079 9.47087 1.25 8.78164 1.25H2.50011C1.81087 1.25 1.25005 1.81079 1.25005 2.5V13.5C1.25005 14.1892 1.81087 14.75 2.50011 14.75H8.78164C9.47087 14.75 10.0317 14.1892 10.0317 13.5V12.25C10.0317 11.9048 10.3115 11.625 10.6567 11.625C11.0019 11.625 11.2817 11.9048 11.2817 12.25ZM15.543 6.92639L14.1434 5.52686C13.8993 5.28271 13.5035 5.28271 13.2595 5.52686C13.0153 5.77087 13.0153 6.16663 13.2595 6.41064L14.255 7.40625H6.7503C6.40507 7.40625 6.12527 7.68604 6.12527 8.03125C6.12527 8.37646 6.40507 8.65625 6.7503 8.65625H14.255L13.2595 9.65186C13.0153 9.89587 13.0153 10.2916 13.2595 10.5356C13.3816 10.6577 13.5415 10.7188 13.7014 10.7188C13.8614 10.7188 14.0214 10.6577 14.1434 10.5356L15.543 9.13611C16.1523 8.52686 16.1523 7.53564 15.543 6.92639Z" fill="#C2CFE0"/>
</svg>
