<svg width="12" height="17" viewBox="0 0 12 17" fill="none" xmlns="http://www.w3.org/2000/svg">
<path d="M9 8.10205C9 7.91455 8.8125 7.72705 8.625 7.72705H3.375C3.15625 7.72705 3 7.91455 3 8.10205V8.97705C3 9.1958 3.15625 9.35205 3.375 9.35205H8.625C8.8125 9.35205 9 9.1958 9 8.97705V8.10205ZM8.625 10.3521H3.375C3.15625 10.3521 3 10.5396 3 10.7271V11.6021C3 11.8208 3.15625 11.9771 3.375 11.9771H8.625C8.8125 11.9771 9 11.8208 9 11.6021V10.7271C9 10.5396 8.8125 10.3521 8.625 10.3521ZM12 4.47705C12 4.10205 11.8125 3.6958 11.5312 3.41455L8.9375 0.820801C8.65625 0.539551 8.25 0.352051 7.875 0.352051H1.5C0.65625 0.352051 0 1.03955 0 1.85205V14.8521C0 15.6958 0.65625 16.3521 1.5 16.3521H10.5C11.3125 16.3521 12 15.6958 12 14.8521V4.47705ZM8 1.97705L10.375 4.35205H8V1.97705ZM10.5 14.8521H1.5V1.85205H6.5V5.10205C6.5 5.53955 6.8125 5.85205 7.25 5.85205H10.5V14.8521Z" fill="#38393E"/>
</svg>
