<svg width="16" height="13" viewBox="0 0 16 13" fill="none" xmlns="http://www.w3.org/2000/svg">
<path d="M15.0312 10.2094H2.375V1.3031C2.375 1.06873 2.14062 0.834351 1.90625 0.834351H0.96875C0.705078 0.834351 0.5 1.06873 0.5 1.3031V11.1469C0.5 11.6742 0.910156 12.0844 1.4375 12.0844H15.0312C15.2656 12.0844 15.5 11.8793 15.5 11.6156V10.6781C15.5 10.4437 15.2656 10.2094 15.0312 10.2094ZM14.0938 1.77185H10.6074C9.99219 1.77185 9.66992 2.53357 10.1094 2.97302L11.0762 3.93982L8.9375 6.07849L6.76953 3.93982C6.41797 3.55896 5.80273 3.55896 5.45117 3.93982L3.42969 5.9613C3.25391 6.13708 3.25391 6.43005 3.42969 6.60583L4.10352 7.27966C4.2793 7.45544 4.57227 7.45544 4.74805 7.27966L6.125 5.93201L8.26367 8.07068C8.61523 8.45154 9.23047 8.45154 9.58203 8.07068L12.3945 5.25818L13.3613 6.22498C13.8008 6.66443 14.5332 6.34216 14.5332 5.72693V2.2406C14.5625 2.00623 14.3281 1.77185 14.0938 1.77185Z" fill="#C2CFE0"/>
</svg>
