<svg width="18" height="13" viewBox="0 0 18 13" fill="none" xmlns="http://www.w3.org/2000/svg">
<path d="M2.875 5.98547C3.83203 5.98547 4.625 5.21985 4.625 4.23547C4.625 3.27844 3.83203 2.48547 2.875 2.48547C1.89062 2.48547 1.125 3.27844 1.125 4.23547C1.125 5.21985 1.89062 5.98547 2.875 5.98547ZM15.125 5.98547C16.082 5.98547 16.875 5.21985 16.875 4.23547C16.875 3.27844 16.082 2.48547 15.125 2.48547C14.1406 2.48547 13.375 3.27844 13.375 4.23547C13.375 5.21985 14.1406 5.98547 15.125 5.98547ZM16 6.86047H14.25C13.7578 6.86047 13.3203 7.07922 12.9922 7.38C14.1133 7.98157 14.8789 9.07532 15.0703 10.3605H16.875C17.3398 10.3605 17.75 9.97766 17.75 9.48547V8.61047C17.75 7.65344 16.957 6.86047 16 6.86047ZM9 6.86047C10.668 6.86047 12.0625 5.49329 12.0625 3.79797C12.0625 2.13 10.668 0.735474 9 0.735474C7.30469 0.735474 5.9375 2.13 5.9375 3.79797C5.9375 5.49329 7.30469 6.86047 9 6.86047ZM11.0781 7.73547H10.8594C10.2852 8.00891 9.65625 8.17297 9 8.17297C8.31641 8.17297 7.6875 8.00891 7.11328 7.73547H6.89453C5.14453 7.73547 3.75 9.15735 3.75 10.9073V11.673C3.75 12.4113 4.32422 12.9855 5.0625 12.9855H12.9375C13.6484 12.9855 14.25 12.4113 14.25 11.673V10.9073C14.25 9.15735 12.8281 7.73547 11.0781 7.73547ZM4.98047 7.38C4.65234 7.07922 4.21484 6.86047 3.75 6.86047H2C1.01562 6.86047 0.25 7.65344 0.25 8.61047V9.48547C0.25 9.97766 0.632812 10.3605 1.125 10.3605H2.90234C3.09375 9.07532 3.85938 7.98157 4.98047 7.38Z" fill="#C2CFE0"/>
</svg>
