<svg width="17" height="17" viewBox="0 0 17 17" fill="none" xmlns="http://www.w3.org/2000/svg">
<path d="M8.43239 1.61364C12.1199 1.61364 15.1824 4.64489 15.1824 8.36364C15.1824 12.1136 12.1511 15.1136 8.43239 15.1136C4.68239 15.1136 1.68239 12.1136 1.68239 8.36364C1.68239 4.64489 4.68239 1.61364 8.43239 1.61364ZM8.43239 0.61364C4.15114 0.61364 0.682391 4.11364 0.682391 8.36364C0.682391 12.6449 4.15114 16.1136 8.43239 16.1136C12.6824 16.1136 16.1824 12.6449 16.1824 8.36364C16.1824 4.11364 12.6824 0.61364 8.43239 0.61364ZM7.30739 11.3636C7.08864 11.3636 6.93239 11.5511 6.93239 11.7386V11.9886C6.93239 12.2074 7.08864 12.3636 7.30739 12.3636H9.55739C9.74489 12.3636 9.93239 12.2074 9.93239 11.9886V11.7386C9.93239 11.5511 9.74489 11.3636 9.55739 11.3636H9.18239V6.98864C9.18239 6.80114 8.99489 6.61364 8.80739 6.61364H7.30739C7.08864 6.61364 6.93239 6.80114 6.93239 6.98864V7.23864C6.93239 7.45739 7.08864 7.61364 7.30739 7.61364H7.68239V11.3636H7.30739ZM8.43239 3.86364C7.86989 3.86364 7.43239 4.33239 7.43239 4.86364C7.43239 5.42614 7.86989 5.86364 8.43239 5.86364C8.96364 5.86364 9.43239 5.42614 9.43239 4.86364C9.43239 4.33239 8.96364 3.86364 8.43239 3.86364Z" fill="url(#paint0_linear)"/>
<defs>
<linearGradient id="paint0_linear" x1="4.99073" y1="22.807" x2="-0.111405" y2="3.38201" gradientUnits="userSpaceOnUse">
<stop stop-color="#1A9561"/>
<stop offset="1" stop-color="#25C984"/>
</linearGradient>
</defs>
</svg>
