<svg width="20" height="21" viewBox="0 0 20 21" fill="none" xmlns="http://www.w3.org/2000/svg">
<path d="M3.25033 10.125C3.25033 8.69998 4.40866 7.54165 5.83366 7.54165H9.16699V5.95831H5.83366C3.53366 5.95831 1.66699 7.82498 1.66699 10.125C1.66699 12.425 3.53366 14.2916 5.83366 14.2916H9.16699V12.7083H5.83366C4.40866 12.7083 3.25033 11.55 3.25033 10.125ZM6.66699 10.9583H13.3337V9.29165H6.66699V10.9583ZM14.167 5.95831H10.8337V7.54165H14.167C15.592 7.54165 16.7503 8.69998 16.7503 10.125C16.7503 11.55 15.592 12.7083 14.167 12.7083H10.8337V14.2916H14.167C16.467 14.2916 18.3337 12.425 18.3337 10.125C18.3337 7.82498 16.467 5.95831 14.167 5.95831Z" fill="url(#paint0_linear)"/>
<defs>
<linearGradient id="paint0_linear" x1="7.91699" y1="15.4779" x2="6.65427" y2="7.91964" gradientUnits="userSpaceOnUse">
<stop stop-color="#1A9561"/>
<stop offset="1" stop-color="#25C984"/>
</linearGradient>
</defs>
</svg>
