<svg width="11" height="15" viewBox="0 0 11 15" fill="none" xmlns="http://www.w3.org/2000/svg">
<path d="M10.3086 3.62109L7.62891 0.941406C7.49219 0.832031 7.32812 0.75 7.16406 0.75H7V4.25H10.5V4.08594C10.5 3.92188 10.418 3.75781 10.3086 3.62109ZM6.125 4.46875V0.75H0.65625C0.273438 0.75 0 1.05078 0 1.40625V14.0938C0 14.4766 0.273438 14.75 0.65625 14.75H9.84375C10.1992 14.75 10.5 14.4766 10.5 14.0938V5.125H6.78125C6.39844 5.125 6.125 4.85156 6.125 4.46875ZM3.5 12.6719C3.5 12.8359 3.30859 13 3.14453 13H2.07812C1.91406 13 1.75 12.8359 1.75 12.6719V10.7305C1.75 10.5664 1.91406 10.375 2.07812 10.375H3.14453C3.30859 10.375 3.5 10.5664 3.5 10.7305V12.6719ZM6.125 12.6719C6.125 12.8359 5.93359 13 5.76953 13H4.70312C4.53906 13 4.375 12.8359 4.375 12.6719V7.23047C4.375 7.06641 4.53906 6.875 4.70312 6.875H5.76953C5.93359 6.875 6.125 7.06641 6.125 7.23047V12.6719ZM7 8.98047C7 8.81641 7.16406 8.625 7.32812 8.625H8.39453C8.55859 8.625 8.75 8.81641 8.75 8.98047V12.6719C8.75 12.8359 8.55859 13 8.39453 13H7.32812C7.16406 13 7 12.8359 7 12.6719V8.98047Z" fill="#687C86"/>
</svg>
