<svg width="18" height="10" viewBox="0 0 18 10" fill="none" xmlns="http://www.w3.org/2000/svg">
<path d="M2.25033 5.12498C2.25033 3.69998 3.40866 2.54165 4.83366 2.54165H8.16699V0.958313H4.83366C2.53366 0.958313 0.666992 2.82498 0.666992 5.12498C0.666992 7.42498 2.53366 9.29165 4.83366 9.29165H8.16699V7.70831H4.83366C3.40866 7.70831 2.25033 6.54998 2.25033 5.12498ZM5.66699 5.95831H12.3337V4.29165H5.66699V5.95831ZM13.167 0.958313H9.83366V2.54165H13.167C14.592 2.54165 15.7503 3.69998 15.7503 5.12498C15.7503 6.54998 14.592 7.70831 13.167 7.70831H9.83366V9.29165H13.167C15.467 9.29165 17.3337 7.42498 17.3337 5.12498C17.3337 2.82498 15.467 0.958313 13.167 0.958313Z" fill="url(#paint0_linear)"/>
<defs>
<linearGradient id="paint0_linear" x1="6.91699" y1="10.4779" x2="5.65427" y2="2.91964" gradientUnits="userSpaceOnUse">
<stop stop-color="#1A9561"/>
<stop offset="1" stop-color="#25C984"/>
</linearGradient>
</defs>
</svg>
