<svg width="13" height="15" viewBox="0 0 13 15" fill="none" xmlns="http://www.w3.org/2000/svg">
<path d="M6.125 7.875C8.03906 7.875 9.625 6.31641 9.625 4.375C9.625 2.46094 8.03906 0.875 6.125 0.875C4.18359 0.875 2.625 2.46094 2.625 4.375C2.625 6.31641 4.18359 7.875 6.125 7.875ZM8.72266 8.77734L7.4375 14L6.5625 10.2812L7.4375 8.75H4.8125L5.6875 10.2812L4.8125 14L3.5 8.77734C1.53125 8.85938 0 10.4727 0 12.4414V13.5625C0 14.3008 0.574219 14.875 1.3125 14.875H10.9375C11.6484 14.875 12.25 14.3008 12.25 13.5625V12.4414C12.25 10.4727 10.6914 8.85938 8.72266 8.77734Z" fill="#687C86"/>
</svg>
