<svg width="22" height="22" viewBox="0 0 22 22" fill="none" xmlns="http://www.w3.org/2000/svg">
<path d="M19.3652 0.5H2.86523C1.59961 0.5 0.615234 1.53125 0.615234 2.75V19.25C0.615234 20.5156 1.59961 21.5 2.86523 21.5H19.3652C20.584 21.5 21.6152 20.5156 21.6152 19.25V2.75C21.6152 1.53125 20.584 0.5 19.3652 0.5ZM19.3652 19.25H2.86523V2.75H19.3652V19.25ZM17.6777 7.95312C17.8652 7.71875 17.8652 7.39062 17.6777 7.15625L16.5996 6.07812C16.4121 5.84375 16.0371 5.84375 15.8027 6.07812L9.19336 12.6406L6.38086 9.82812C6.14648 9.59375 5.81836 9.59375 5.58398 9.82812L4.50586 10.8594C4.31836 11.0938 4.31836 11.4688 4.50586 11.6562L8.77148 15.9688C9.00586 16.2031 9.33398 16.2031 9.56836 15.9688L17.6777 7.95312Z" fill="#1A9561"/>
</svg>
