<svg width="17" height="17" viewBox="0 0 17 17" fill="none" xmlns="http://www.w3.org/2000/svg">
<path d="M16.334 8.45691C16.334 7.30066 15.584 6.30066 14.5215 5.89441C14.9902 4.89441 14.8027 3.64441 13.9902 2.80066C13.1465 1.98816 11.8965 1.80066 10.8965 2.26941C10.4902 1.20691 9.49023 0.456909 8.33398 0.456909C7.14648 0.456909 6.14648 1.20691 5.74023 2.26941C4.74023 1.80066 3.49023 1.98816 2.67773 2.80066C1.83398 3.64441 1.64648 4.89441 2.11523 5.89441C1.05273 6.30066 0.333984 7.30066 0.333984 8.45691C0.333984 9.64441 1.05273 10.6444 2.11523 11.0507C1.64648 12.0507 1.83398 13.3007 2.67773 14.1132C3.49023 14.9569 4.74023 15.1444 5.74023 14.6757C6.14648 15.7382 7.14648 16.4569 8.33398 16.4569C9.49023 16.4569 10.4902 15.7382 10.8965 14.6757C11.9277 15.1444 13.1465 14.9569 13.9902 14.1132C14.8027 13.3007 14.9902 12.0507 14.5215 11.0507C15.584 10.6444 16.334 9.64441 16.334 8.45691ZM11.8027 7.08191L7.70898 11.1444C7.55273 11.3007 7.33398 11.2694 7.20898 11.1444L4.83398 8.76941C4.70898 8.64441 4.70898 8.42566 4.83398 8.26941L5.64648 7.45691C5.80273 7.33191 6.02148 7.33191 6.14648 7.48816L7.45898 8.80066L10.4902 5.80066C10.6465 5.64441 10.8652 5.64441 10.9902 5.80066L11.8027 6.61316C11.9277 6.73816 11.9277 6.95691 11.8027 7.08191Z" fill="#3A7BD5"/>
</svg>
