<svg width="20" height="20" viewBox="0 0 20 20" fill="none" xmlns="http://www.w3.org/2000/svg">
<path d="M6.81154 6.11113C6.81154 4.34912 8.23842 2.92224 10.0004 2.92224C11.7624 2.92224 13.1893 4.34912 13.1893 6.11113C13.1893 7.87315 11.7624 9.30002 10.0004 9.30002C8.23842 9.30002 6.81154 7.87315 6.81154 6.11113ZM2.92266 14.8611C2.92266 14.4717 3.11218 14.0788 3.54765 13.6769C3.98788 13.2706 4.63116 12.9041 5.39842 12.5967C6.93407 11.9815 8.79002 11.6722 10.0004 11.6722C11.2108 11.6722 13.0668 11.9815 14.6024 12.5967C15.3697 12.9041 16.013 13.2706 16.4532 13.6769C16.8887 14.0788 17.0782 14.4717 17.0782 14.8611V17.0778H2.92266V14.8611Z" stroke="#C2CFE0" stroke-width="1.4"/>
</svg>
