<svg width="12" height="16" viewBox="0 0 12 16" fill="none" xmlns="http://www.w3.org/2000/svg">
<path d="M9.25 12.5H6.75C6.59375 12.5 6.5 12.625 6.5 12.75V13.25C6.5 13.4062 6.59375 13.5 6.75 13.5H9.25C9.375 13.5 9.5 13.4062 9.5 13.25V12.75C9.5 12.625 9.375 12.5 9.25 12.5ZM2.5 7.5V10.5C2.5 10.7812 2.71875 11 3 11H9C9.25 11 9.5 10.7812 9.5 10.5V7.5C9.5 7.25 9.25 7 9 7H3C2.71875 7 2.5 7.25 2.5 7.5ZM3.5 8H8.5V10H3.5V8ZM11.5312 3.0625L8.90625 0.46875C8.625 0.1875 8.25 0 7.875 0H1.46875C0.65625 0.03125 0 0.6875 0 1.53125V14.5312C0 15.3438 0.65625 16 1.46875 16H10.4688C11.3125 16 12 15.3438 12 14.5312V4.125C12 3.75 11.8125 3.34375 11.5312 3.0625ZM7.96875 1.625L10.375 4.03125H7.96875V1.625ZM10.5 14.5312H1.46875V1.53125H6.46875V4.78125C6.46875 5.1875 6.8125 5.53125 7.21875 5.53125H10.5V14.5312ZM2.75 3.5H5.25C5.375 3.5 5.5 3.40625 5.5 3.25V2.75C5.5 2.625 5.375 2.5 5.25 2.5H2.75C2.59375 2.5 2.5 2.625 2.5 2.75V3.25C2.5 3.40625 2.59375 3.5 2.75 3.5ZM2.75 5.5H5.25C5.375 5.5 5.5 5.40625 5.5 5.25V4.75C5.5 4.625 5.375 4.5 5.25 4.5H2.75C2.59375 4.5 2.5 4.625 2.5 4.75V5.25C2.5 5.40625 2.59375 5.5 2.75 5.5Z" fill="#C2CFE0"/>
</svg>
