<svg width="15" height="13" viewBox="0 0 15 13" fill="none" xmlns="http://www.w3.org/2000/svg">
<path d="M8 0.625C4.11719 0.625 1 3.19531 1 6.3125C1 7.67969 1.57422 8.91016 2.55859 9.89453C2.20312 11.2891 1.05469 12.4922 1.05469 12.5195C1 12.5742 0.972656 12.6836 1 12.7656C1.05469 12.8477 1.10938 12.875 1.21875 12.875C3.02344 12.875 4.39062 12.0273 5.04688 11.4805C5.94922 11.8086 6.93359 12 8 12C11.8555 12 15 9.45703 15 6.3125C15 3.19531 11.8555 0.625 8 0.625ZM6.87891 9.12891L5.56641 9.26562C5.375 9.29297 5.23828 9.15625 5.26562 8.96484L5.40234 7.65234L8.02734 5.02734L9.50391 6.50391L6.87891 9.12891ZM11.0078 5L10.1328 5.875L8.65625 4.39844L9.53125 3.52344C9.75 3.30469 10.0781 3.30469 10.2969 3.52344L11.0078 4.23438C11.2266 4.45312 11.2266 4.78125 11.0078 5Z" fill="#687C86"/>
</svg>
