<svg width="11" height="15" viewBox="0 0 11 15" fill="none" xmlns="http://www.w3.org/2000/svg">
<path d="M10.3086 3.74463L7.62891 1.06494C7.49219 0.955566 7.32812 0.873535 7.16406 0.873535H7V4.37354H10.5V4.20947C10.5 4.04541 10.418 3.88135 10.3086 3.74463ZM6.125 4.59229V0.873535H0.65625C0.273438 0.873535 0 1.17432 0 1.52979V14.2173C0 14.6001 0.273438 14.8735 0.65625 14.8735H9.84375C10.1992 14.8735 10.5 14.6001 10.5 14.2173V5.24854H6.78125C6.39844 5.24854 6.125 4.9751 6.125 4.59229ZM3.5 12.7954C3.5 12.9595 3.30859 13.1235 3.14453 13.1235H2.07812C1.91406 13.1235 1.75 12.9595 1.75 12.7954V10.854C1.75 10.6899 1.91406 10.4985 2.07812 10.4985H3.14453C3.30859 10.4985 3.5 10.6899 3.5 10.854V12.7954ZM6.125 12.7954C6.125 12.9595 5.93359 13.1235 5.76953 13.1235H4.70312C4.53906 13.1235 4.375 12.9595 4.375 12.7954V7.354C4.375 7.18994 4.53906 6.99854 4.70312 6.99854H5.76953C5.93359 6.99854 6.125 7.18994 6.125 7.354V12.7954ZM7 9.104C7 8.93994 7.16406 8.74854 7.32812 8.74854H8.39453C8.55859 8.74854 8.75 8.93994 8.75 9.104V12.7954C8.75 12.9595 8.55859 13.1235 8.39453 13.1235H7.32812C7.16406 13.1235 7 12.9595 7 12.7954V9.104Z" fill="#687C86"/>
</svg>
