<svg width="15" height="12" viewBox="0 0 15 12" fill="none" xmlns="http://www.w3.org/2000/svg">
<path opacity="0.8" d="M9.79199 7.66667H10.8584C11.0225 7.66667 11.2139 7.50261 11.2139 7.33855V3.64714C11.2139 3.48308 11.0225 3.29167 10.8584 3.29167H9.79199C9.62793 3.29167 9.46387 3.48308 9.46387 3.64714V7.33855C9.46387 7.50261 9.62793 7.66667 9.79199 7.66667ZM12.417 7.66667H13.4834C13.6475 7.66667 13.8389 7.50261 13.8389 7.33855V1.02214C13.8389 0.858078 13.6475 0.666672 13.4834 0.666672H12.417C12.2529 0.666672 12.0889 0.858078 12.0889 1.02214V7.33855C12.0889 7.50261 12.2529 7.66667 12.417 7.66667ZM4.54199 7.66667H5.6084C5.77246 7.66667 5.96387 7.50261 5.96387 7.33855V5.39714C5.96387 5.23308 5.77246 5.04167 5.6084 5.04167H4.54199C4.37793 5.04167 4.21387 5.23308 4.21387 5.39714V7.33855C4.21387 7.50261 4.37793 7.66667 4.54199 7.66667ZM7.16699 7.66667H8.2334C8.39746 7.66667 8.58887 7.50261 8.58887 7.33855V1.89714C8.58887 1.73308 8.39746 1.54167 8.2334 1.54167H7.16699C7.00293 1.54167 6.83887 1.73308 6.83887 1.89714V7.33855C6.83887 7.50261 7.00293 7.66667 7.16699 7.66667ZM14.2764 9.41667H2.46387V1.10417C2.46387 0.885422 2.24512 0.666672 2.02637 0.666672H1.15137C0.905273 0.666672 0.713867 0.885422 0.713867 1.10417V10.2917C0.713867 10.7839 1.09668 11.1667 1.58887 11.1667H14.2764C14.4951 11.1667 14.7139 10.9753 14.7139 10.7292V9.85417C14.7139 9.63542 14.4951 9.41667 14.2764 9.41667Z" fill="white"/>
</svg>
