<svg width="20" height="17" viewBox="0 0 20 17" fill="none" xmlns="http://www.w3.org/2000/svg">
<path d="M19.4375 8.5L15.8438 7.09375C15.7188 7.03125 15.4375 6.96875 15.125 7.09375L11.5312 8.5C11.2188 8.625 11 8.9375 11 9.25C11 12.75 13.125 15.1562 15.125 15.9375C15.4375 16.0625 15.6875 16 15.8438 15.9375C17.4375 15.3125 20 13.1562 20 9.25C20 8.9375 19.7812 8.625 19.4375 8.5ZM15.5 14.4688V8.5625L18.4688 9.71875C18.2812 12.4375 16.5625 13.9375 15.5 14.4688ZM11.125 14.5H1.5V13.7188C1.5 12.2188 2.6875 11 4.1875 11C4.65625 11 5.375 11.5 7 11.5C8.46875 11.5 9.1875 11.0938 9.65625 11.0312C9.5625 10.5625 9.5 10.0625 9.5 9.53125C8.6875 9.65625 8.25 10 6.96875 10C5.5 10 5.09375 9.5 4.1875 9.5C1.875 9.5 0 11.4062 0 13.7188V14.5C0 15.3438 0.65625 16 1.5 16H12.4688C11.9688 15.5938 11.5312 15.0938 11.125 14.5ZM7 9C9.46875 9 11.5 7 11.5 4.5C11.5 2.03125 9.46875 0 7 0C4.5 0 2.5 2.03125 2.5 4.5C2.5 7 4.5 9 7 9ZM7 1.5C8.625 1.5 10 2.875 10 4.5C10 6.15625 8.625 7.5 7 7.5C5.34375 7.5 4 6.15625 4 4.5C4 2.875 5.34375 1.5 7 1.5Z" fill="#C2CFE0"/>
</svg>
