<svg width="11" height="15" viewBox="0 0 11 15" fill="none" xmlns="http://www.w3.org/2000/svg">
<path d="M10.0898 3.55115L7.79297 1.28162C7.54688 1.03552 7.21875 0.87146 6.89063 0.87146H1.28516C0.574219 0.898804 0 1.47302 0 2.2113V13.5863C0 14.2972 0.574219 14.8715 1.28516 14.8715H9.16016C9.89844 14.8715 10.5 14.2972 10.5 13.5863V4.48083C10.5 4.15271 10.3359 3.79724 10.0898 3.55115ZM6.97266 2.29333L9.07813 4.3988H6.97266V2.29333ZM9.1875 13.5863H1.28516V2.2113H5.66016V5.05505C5.66016 5.41052 5.96094 5.7113 6.31641 5.7113H9.1875V13.5863ZM2.40625 3.93396H4.59375C4.70313 3.93396 4.8125 3.85193 4.8125 3.71521V3.27771C4.8125 3.16833 4.70313 3.05896 4.59375 3.05896H2.40625C2.26953 3.05896 2.1875 3.16833 2.1875 3.27771V3.71521C2.1875 3.85193 2.26953 3.93396 2.40625 3.93396ZM4.8125 5.46521V5.02771C4.8125 4.91833 4.70313 4.80896 4.59375 4.80896H2.40625C2.26953 4.80896 2.1875 4.91833 2.1875 5.02771V5.46521C2.1875 5.60193 2.26953 5.68396 2.40625 5.68396H4.59375C4.70313 5.68396 4.8125 5.60193 4.8125 5.46521Z" fill="#687C86"/>
</svg>
