<svg width="14" height="13" viewBox="0 0 14 13" fill="none" xmlns="http://www.w3.org/2000/svg">
<path d="M12.6055 3.37354H2.1875C1.94141 3.37354 1.75 3.18213 1.75 2.93604C1.75 2.71729 1.94141 2.49854 2.1875 2.49854H12.6875C12.9062 2.49854 13.125 2.30713 13.125 2.06104C13.125 1.3501 12.5234 0.748535 11.8125 0.748535H1.75C0.765625 0.748535 0 1.5415 0 2.49854V11.2485C0 12.2329 0.765625 12.9985 1.75 12.9985H12.6055C13.3711 12.9985 14 12.4243 14 11.686V4.68604C14 3.9751 13.3711 3.37354 12.6055 3.37354ZM11.375 9.06104C10.8828 9.06104 10.5 8.67822 10.5 8.18604C10.5 7.72119 10.8828 7.31104 11.375 7.31104C11.8398 7.31104 12.25 7.72119 12.25 8.18604C12.25 8.67822 11.8398 9.06104 11.375 9.06104Z" fill="#C2CFE0"/>
</svg>
