<svg width="22" height="22" viewBox="0 0 22 22" fill="none" xmlns="http://www.w3.org/2000/svg">
<path d="M21.6152 2.75C21.6152 1.53125 20.584 0.5 19.3652 0.5H2.86523C1.59961 0.5 0.615234 1.53125 0.615234 2.75V19.25C0.615234 20.5156 1.59961 21.5 2.86523 21.5H19.3652C20.584 21.5 21.6152 20.5156 21.6152 19.25V2.75ZM19.3652 18.9688C19.3652 19.1562 19.2246 19.25 19.084 19.25H3.14648C2.95898 19.25 2.86523 19.1562 2.86523 18.9688V3.03125C2.86523 2.89062 2.95898 2.75 3.14648 2.75H19.084C19.2246 2.75 19.3652 2.89062 19.3652 3.03125V18.9688ZM13.084 15.5C13.084 14.4219 12.1934 13.5312 11.1152 13.5312C9.99023 13.5312 9.14648 14.4219 9.14648 15.5C9.14648 16.625 9.99023 17.4688 11.1152 17.4688C12.1934 17.4688 13.084 16.625 13.084 15.5ZM9.24023 5.60938L9.56836 11.9844C9.56836 12.2656 9.84961 12.5 10.1309 12.5H12.0527C12.334 12.5 12.6152 12.2656 12.6152 11.9844L12.9434 5.60938C12.9434 5.28125 12.709 5 12.3809 5H9.80273C9.47461 5 9.24023 5.28125 9.24023 5.60938Z" fill="#FE3E3E"/>
</svg>
