<svg width="160" height="39" viewBox="0 0 160 39" fill="none" xmlns="http://www.w3.org/2000/svg">
<path d="M69.6316 4.77064V8.5589H76.2662V11.2209H69.6316V16.4426H66.3144V2.10862H77.1467V4.77064H69.6316Z" fill="#222222"/>
<path d="M89.4467 16.4426L86.6823 12.4495H83.6312V16.4426H80.314V2.10862H86.5185C87.7881 2.10862 88.887 2.32022 89.8153 2.74341C90.7573 3.16661 91.4808 3.76727 91.9859 4.54539C92.491 5.32352 92.7435 6.24499 92.7435 7.3098C92.7435 8.37461 92.4842 9.29608 91.9654 10.0742C91.4603 10.8387 90.7368 11.4257 89.7948 11.8352L93.0097 16.4426H89.4467ZM89.3853 7.3098C89.3853 6.50437 89.1259 5.89006 88.6072 5.46686C88.0884 5.03002 87.3308 4.8116 86.3342 4.8116H83.6312V9.808H86.3342C87.3308 9.808 88.0884 9.58958 88.6072 9.15274C89.1259 8.71589 89.3853 8.10158 89.3853 7.3098Z" fill="#222222"/>
<path d="M96.2933 2.10862H99.6106V16.4426H96.2933V2.10862Z" fill="#222222"/>
<path d="M110.876 16.6883C109.388 16.6883 108.043 16.3675 106.842 15.7259C105.654 15.0843 104.719 14.2037 104.036 13.0843C103.367 11.9513 103.033 10.6817 103.033 9.2756C103.033 7.86951 103.367 6.60675 104.036 5.48734C104.719 4.35428 105.654 3.46694 106.842 2.82532C108.043 2.18371 109.388 1.8629 110.876 1.8629C112.364 1.8629 113.701 2.18371 114.889 2.82532C116.077 3.46694 117.012 4.35428 117.694 5.48734C118.377 6.60675 118.718 7.86951 118.718 9.2756C118.718 10.6817 118.377 11.9513 117.694 13.0843C117.012 14.2037 116.077 15.0843 114.889 15.7259C113.701 16.3675 112.364 16.6883 110.876 16.6883ZM110.876 13.8625C111.722 13.8625 112.486 13.6713 113.169 13.2891C113.852 12.8932 114.384 12.3472 114.766 11.6509C115.162 10.9547 115.36 10.1629 115.36 9.2756C115.36 8.38826 115.162 7.59648 114.766 6.90026C114.384 6.20404 113.852 5.66481 113.169 5.28257C112.486 4.88668 111.722 4.68874 110.876 4.68874C110.029 4.68874 109.265 4.88668 108.582 5.28257C107.9 5.66481 107.36 6.20404 106.964 6.90026C106.582 7.59648 106.391 8.38826 106.391 9.2756C106.391 10.1629 106.582 10.9547 106.964 11.6509C107.36 12.3472 107.9 12.8932 108.582 13.2891C109.265 13.6713 110.029 13.8625 110.876 13.8625Z" fill="#222222"/>
<path d="M73.1742 37.0835C71.7408 37.0835 70.4439 36.7695 69.2835 36.1415C68.1368 35.4999 67.2358 34.6262 66.5806 33.5205C65.9253 32.401 65.5977 31.1451 65.5977 29.7527C65.5977 28.3602 65.9253 27.1111 66.5806 26.0054C67.2358 24.886 68.1436 24.0123 69.304 23.3843C70.4644 22.7427 71.7613 22.4219 73.1947 22.4219C74.3141 22.4219 75.3379 22.613 76.2662 22.9952C77.1945 23.3638 77.9863 23.9167 78.6416 24.6539L77.3105 25.9439C76.2321 24.8109 74.8874 24.2443 73.2766 24.2443C72.2118 24.2443 71.2493 24.4832 70.3893 24.961C69.5293 25.4388 68.8535 26.1009 68.3621 26.9473C67.8843 27.7801 67.6454 28.7152 67.6454 29.7527C67.6454 30.7902 67.8843 31.7321 68.3621 32.5785C68.8535 33.4112 69.5293 34.0665 70.3893 34.5443C71.2493 35.0221 72.2118 35.261 73.2766 35.261C74.8738 35.261 76.2184 34.6876 77.3105 33.5409L78.6416 34.831C77.9863 35.5682 77.1877 36.1279 76.2457 36.5101C75.3174 36.8923 74.2936 37.0835 73.1742 37.0835Z" fill="#222222"/>
<path d="M91.4818 33.3362H83.8643L82.2876 36.9197H80.1785L86.6697 22.5857H88.6969L95.2086 36.9197H93.0585L91.4818 33.3362ZM90.7651 31.698L87.6731 24.6744L84.581 31.698H90.7651Z" fill="#222222"/>
<path d="M104.063 22.5857C105.92 22.5857 107.381 23.0294 108.445 23.9167C109.51 24.804 110.043 26.0258 110.043 27.5821C110.043 29.1384 109.51 30.3602 108.445 31.2475C107.381 32.1348 105.92 32.5785 104.063 32.5785H100.521V36.9197H98.4731V22.5857H104.063ZM104.002 30.797C105.299 30.797 106.289 30.524 106.971 29.9779C107.654 29.4182 107.995 28.6196 107.995 27.5821C107.995 26.5446 107.654 25.7528 106.971 25.2068C106.289 24.6471 105.299 24.3672 104.002 24.3672H100.521V30.797H104.002Z" fill="#222222"/>
<path d="M114.177 22.5857H116.225V36.9197H114.177V22.5857Z" fill="#222222"/>
<path d="M124.489 24.3672H119.574V22.5857H131.431V24.3672H126.516V36.9197H124.489V24.3672Z" fill="#222222"/>
<path d="M143.2 33.3362H135.583L134.006 36.9197H131.897L138.388 22.5857H140.415L146.927 36.9197H144.777L143.2 33.3362ZM142.483 31.698L139.391 24.6744L136.299 31.698H142.483Z" fill="#222222"/>
<path d="M150.191 22.5857H152.239V35.1381H160V36.9197H150.191V22.5857Z" fill="#222222"/>
<path d="M124.429 0C124.899 0 125.324 0.109211 125.704 0.327633C126.089 0.546055 126.39 0.847573 126.609 1.23219C126.827 1.61205 126.936 2.03465 126.936 2.49998C126.936 2.96532 126.825 3.39267 126.602 3.78203C126.378 4.16664 126.074 4.47053 125.69 4.6937C125.305 4.91687 124.88 5.02846 124.415 5.02846C123.95 5.02846 123.525 4.91687 123.14 4.6937C122.76 4.47053 122.459 4.16664 122.235 3.78203C122.017 3.39741 121.908 2.97481 121.908 2.51423C121.908 2.05364 122.017 1.63104 122.235 1.24643C122.459 0.861818 122.763 0.557926 123.147 0.334756C123.532 0.111585 123.959 0 124.429 0ZM124.415 4.63672C124.809 4.63672 125.165 4.54176 125.483 4.35182C125.806 4.16189 126.06 3.90548 126.245 3.5826C126.431 3.25496 126.523 2.89409 126.523 2.49998C126.523 2.10587 126.433 1.74975 126.253 1.43161C126.072 1.10873 125.823 0.854695 125.505 0.669511C125.187 0.484327 124.828 0.391735 124.429 0.391735C124.03 0.391735 123.669 0.486701 123.347 0.676634C123.024 0.861818 122.77 1.11585 122.584 1.43874C122.404 1.76162 122.314 2.12012 122.314 2.51423C122.314 2.90834 122.404 3.26684 122.584 3.58972C122.77 3.91261 123.021 4.16901 123.339 4.35895C123.662 4.54413 124.021 4.63672 124.415 4.63672ZM125.718 2.08688C125.718 2.29581 125.668 2.47387 125.569 2.62107C125.474 2.76826 125.336 2.87985 125.156 2.95582L125.782 3.91735H125.17L124.614 3.06266H123.98V3.91735H123.368V1.1111H124.536C124.902 1.1111 125.189 1.19895 125.398 1.37463C125.612 1.55032 125.718 1.78774 125.718 2.08688ZM124.5 2.58545C124.7 2.58545 124.854 2.54272 124.963 2.45725C125.073 2.36703 125.127 2.24358 125.127 2.08688C125.127 1.93019 125.073 1.8091 124.963 1.72364C124.854 1.63817 124.7 1.59543 124.5 1.59543H123.973V2.58545H124.5Z" fill="#222222"/>
<path fill-rule="evenodd" clip-rule="evenodd" d="M9.68272 9.09834C11.1724 4.56094 15.294 1.50844 19.9309 1.50844H55.1582L55.7379 1.50845L46.0552 31.002C44.5655 35.5394 40.4439 38.5919 35.807 38.5919H17.9781L20.5281 30.6711H32.4926C34.6786 30.6711 36.6217 29.2321 37.324 27.0929L38.2316 24.3285H22.5701L24.8585 17.2202C25.4634 16.3252 26.4168 15.7719 27.4562 15.7719H41.0407L43.123 9.42921H23.2453C21.0592 9.42921 19.1161 10.8683 18.4139 13.0074L18.0188 14.2108L17.9833 14.1994L15.9995 20.3615L12.6149 30.6711H12.6805L10.1305 38.5919H1.97113L0 38.5919L9.68272 9.09834Z" fill="#B9AD92"/>
</svg>
