<svg width="134" height="28" viewBox="0 0 134 28" fill="none" xmlns="http://www.w3.org/2000/svg">
<path opacity="0.5" d="M21.3313 5.46287L12.2299 1.48746C11.9929 1.38807 11.6137 1.33838 11.3767 1.33838C11.0923 1.33838 10.713 1.38807 10.476 1.48746L1.37468 5.46287C0.521431 5.86041 0 6.70519 0 7.64935C0 17.5382 5.40392 24.3461 10.476 26.5823C11.0449 26.8307 11.6611 26.8307 12.2299 26.5823C16.3066 24.7933 22.7534 18.6811 22.7534 7.64935C22.7534 6.70519 22.1845 5.86041 21.3313 5.46287ZM19.1033 11.1278L10.3812 20.2713C10.0968 20.6191 9.57537 20.6191 9.29095 20.2713L4.36106 15.1032C4.07664 14.8051 4.07664 14.3082 4.36106 14.01L5.45132 12.8671C5.73574 12.5689 6.20977 12.5689 6.49419 12.8671L9.85979 16.3456L16.9702 8.89166C17.2546 8.59351 17.7287 8.59351 18.0131 8.89166L19.1033 10.0346C19.3878 10.3328 19.3878 10.8297 19.1033 11.1278Z" fill="#C49D7E"/>
<g opacity="0.5">
<path opacity="0.5" d="M32.8721 5.4248L32.2041 5.02051C31.7852 4.76562 31.4863 4.51514 31.3076 4.26904C31.1318 4.02002 31.0439 3.73438 31.0439 3.41211C31.0439 2.92871 31.2109 2.53613 31.5449 2.23438C31.8818 1.93262 32.3184 1.78174 32.8545 1.78174C33.3672 1.78174 33.8374 1.92529 34.2651 2.2124V3.20996C33.8228 2.78516 33.3467 2.57275 32.8369 2.57275C32.5498 2.57275 32.314 2.64014 32.1294 2.7749C31.9448 2.90674 31.8525 3.07666 31.8525 3.28467C31.8525 3.46924 31.9199 3.64209 32.0547 3.80322C32.1895 3.96436 32.4077 4.13281 32.7095 4.30859L33.3818 4.7041C34.1318 5.14941 34.5068 5.71777 34.5068 6.40918C34.5068 6.90137 34.3413 7.30127 34.0103 7.60889C33.6821 7.9165 33.2544 8.07031 32.7271 8.07031C32.1206 8.07031 31.5684 7.88428 31.0703 7.51221V6.396C31.5449 6.99658 32.0942 7.29688 32.7183 7.29688C32.9937 7.29688 33.2222 7.2207 33.4038 7.06836C33.5884 6.91309 33.6807 6.71973 33.6807 6.48828C33.6807 6.11328 33.4111 5.75879 32.8721 5.4248ZM38.8091 6.04883H35.9658C35.9863 6.43555 36.1152 6.74316 36.3525 6.97168C36.5928 7.2002 36.9019 7.31445 37.2798 7.31445C37.8071 7.31445 38.2935 7.15039 38.7388 6.82227V7.60449C38.4927 7.76855 38.248 7.88574 38.0049 7.95605C37.7646 8.02637 37.4819 8.06152 37.1567 8.06152C36.7114 8.06152 36.3511 7.96924 36.0757 7.78467C35.8003 7.6001 35.5791 7.35254 35.4121 7.04199C35.248 6.72852 35.166 6.3667 35.166 5.95654C35.166 5.34131 35.3403 4.8418 35.689 4.45801C36.0376 4.07129 36.4902 3.87793 37.0469 3.87793C37.583 3.87793 38.0107 4.06543 38.3301 4.44043C38.6494 4.81543 38.8091 5.31787 38.8091 5.94775V6.04883ZM35.9834 5.56982H38.0181C37.9976 5.25049 37.9023 5.00439 37.7324 4.83154C37.5625 4.65869 37.334 4.57227 37.0469 4.57227C36.7598 4.57227 36.5239 4.65869 36.3394 4.83154C36.1577 5.00439 36.0391 5.25049 35.9834 5.56982ZM42.7114 7.05518V7.84619C42.3101 7.99561 41.9175 8.07031 41.5337 8.07031C40.9009 8.07031 40.3955 7.88281 40.0176 7.50781C39.6426 7.13281 39.4551 6.63037 39.4551 6.00049C39.4551 5.36475 39.6382 4.85205 40.0044 4.4624C40.3706 4.07275 40.8525 3.87793 41.4502 3.87793C41.6582 3.87793 41.8442 3.89844 42.0083 3.93945C42.1753 3.97754 42.3804 4.05078 42.6235 4.15918V5.01172C42.2192 4.75391 41.8442 4.625 41.4985 4.625C41.1382 4.625 40.8423 4.75244 40.6108 5.00732C40.3794 5.25928 40.2637 5.58154 40.2637 5.97412C40.2637 6.38721 40.3882 6.71533 40.6372 6.9585C40.8892 7.20166 41.2275 7.32324 41.6523 7.32324C41.96 7.32324 42.313 7.23389 42.7114 7.05518ZM46.2007 8V7.48584C46.0308 7.67041 45.8359 7.81396 45.6162 7.9165C45.3994 8.01904 45.1826 8.07031 44.9658 8.07031C44.7109 8.07031 44.4751 8.00732 44.2583 7.88135C44.0444 7.75244 43.8818 7.57959 43.7705 7.36279C43.6621 7.14307 43.6079 6.77979 43.6079 6.27295V3.95703H44.4077V6.26416C44.4077 6.68896 44.4678 6.98633 44.5879 7.15625C44.7109 7.32324 44.9248 7.40674 45.2295 7.40674C45.6104 7.40674 45.9341 7.2207 46.2007 6.84863V3.95703H47.0005V8H46.2007ZM48.9824 3.95703V4.88428L49.0264 4.81396C49.4131 4.18994 49.7998 3.87793 50.1865 3.87793C50.4883 3.87793 50.8032 4.03027 51.1313 4.33496L50.7095 5.03809C50.4312 4.77441 50.1733 4.64258 49.936 4.64258C49.6782 4.64258 49.4541 4.76562 49.2637 5.01172C49.0762 5.25781 48.9824 5.54932 48.9824 5.88623V8H48.1782V3.95703H48.9824ZM54.9546 6.04883H52.1113C52.1318 6.43555 52.2607 6.74316 52.498 6.97168C52.7383 7.2002 53.0474 7.31445 53.4253 7.31445C53.9526 7.31445 54.439 7.15039 54.8843 6.82227V7.60449C54.6382 7.76855 54.3936 7.88574 54.1504 7.95605C53.9102 8.02637 53.6274 8.06152 53.3022 8.06152C52.8569 8.06152 52.4966 7.96924 52.2212 7.78467C51.9458 7.6001 51.7246 7.35254 51.5576 7.04199C51.3936 6.72852 51.3115 6.3667 51.3115 5.95654C51.3115 5.34131 51.4858 4.8418 51.8345 4.45801C52.1831 4.07129 52.6357 3.87793 53.1924 3.87793C53.7285 3.87793 54.1562 4.06543 54.4756 4.44043C54.7949 4.81543 54.9546 5.31787 54.9546 5.94775V6.04883ZM52.1289 5.56982H54.1636C54.1431 5.25049 54.0479 5.00439 53.8779 4.83154C53.708 4.65869 53.4795 4.57227 53.1924 4.57227C52.9053 4.57227 52.6694 4.65869 52.4849 4.83154C52.3032 5.00439 52.1846 5.25049 52.1289 5.56982ZM58.5229 1.86084H59.3271V8H57.6177C57.02 8 56.5425 7.81104 56.1851 7.43311C55.8306 7.05518 55.6533 6.54834 55.6533 5.9126C55.6533 5.31787 55.8394 4.82861 56.2114 4.44482C56.5864 4.06104 57.064 3.86914 57.644 3.86914C57.9136 3.86914 58.2065 3.92627 58.5229 4.04053V1.86084ZM58.5229 7.31445V4.75244C58.2739 4.62646 58.022 4.56348 57.7671 4.56348C57.3687 4.56348 57.0508 4.69385 56.8135 4.95459C56.5791 5.21533 56.4619 5.56689 56.4619 6.00928C56.4619 6.42529 56.5645 6.74609 56.7695 6.97168C56.8926 7.10645 57.0229 7.19727 57.1606 7.24414C57.2983 7.29102 57.5459 7.31445 57.9033 7.31445H58.5229ZM65.106 8H63.0273V1.86084H64.6357C65.1426 1.86084 65.5381 1.92969 65.8223 2.06738C66.1064 2.20215 66.3232 2.38965 66.4727 2.62988C66.6221 2.86719 66.6968 3.14258 66.6968 3.45605C66.6968 4.05957 66.3848 4.4917 65.7607 4.75244C66.209 4.8374 66.5649 5.02197 66.8286 5.30615C67.0952 5.59033 67.2285 5.93018 67.2285 6.32568C67.2285 6.63916 67.1479 6.91895 66.9868 7.16504C66.8257 7.41113 66.5884 7.61182 66.2749 7.76709C65.9644 7.92236 65.5747 8 65.106 8ZM64.6621 2.64307H63.9062V4.48877H64.4907C64.9595 4.48877 65.292 4.39941 65.4883 4.2207C65.6875 4.04199 65.7871 3.81055 65.7871 3.52637C65.7871 2.9375 65.4121 2.64307 64.6621 2.64307ZM64.728 5.271H63.9062V7.21777H64.772C65.2524 7.21777 65.5776 7.18115 65.7476 7.10791C65.9204 7.03174 66.0581 6.91455 66.1606 6.75635C66.2661 6.59814 66.3188 6.42822 66.3188 6.24658C66.3188 6.05908 66.2632 5.8877 66.1519 5.73242C66.0435 5.57715 65.8882 5.46143 65.686 5.38525C65.4839 5.30908 65.1646 5.271 64.728 5.271ZM70.4629 3.95703H71.3638L68.5029 10.061H67.6108L68.9863 7.13428L67.4219 3.95703H68.3315L69.4214 6.23779L70.4629 3.95703Z" fill="black"/>
<path d="M32.827 19.4256V21.884H37.1325V23.6115H32.827V27H30.6743V17.6982H37.7038V19.4256H32.827Z" fill="#201E1F"/>
<path d="M45.6858 27L43.8919 24.4088H41.9119V27H39.7592V17.6982H43.7856C44.6094 17.6982 45.3226 17.8355 45.925 18.1101C46.5362 18.3847 47.0058 18.7745 47.3335 19.2795C47.6613 19.7844 47.8252 20.3824 47.8252 21.0734C47.8252 21.7644 47.6569 22.3624 47.3202 22.8673C46.9925 23.3634 46.5229 23.7444 45.9117 24.0101L47.998 27H45.6858ZM45.6459 21.0734C45.6459 20.5507 45.4776 20.1521 45.141 19.8774C44.8043 19.594 44.3127 19.4522 43.666 19.4522H41.9119V22.6946H43.666C44.3127 22.6946 44.8043 22.5528 45.141 22.2693C45.4776 21.9859 45.6459 21.5872 45.6459 21.0734Z" fill="#201E1F"/>
<path d="M50.1288 17.6982H52.2815V27H50.1288V17.6982Z" fill="#201E1F"/>
<path d="M59.5917 27.1595C58.6261 27.1595 57.7535 26.9513 56.9739 26.5349C56.2032 26.1185 55.5964 25.5471 55.1534 24.8207C54.7193 24.0854 54.5023 23.2615 54.5023 22.3491C54.5023 21.4366 54.7193 20.6172 55.1534 19.8907C55.5964 19.1554 56.2032 18.5796 56.9739 18.1632C57.7535 17.7469 58.6261 17.5387 59.5917 17.5387C60.5573 17.5387 61.4255 17.7469 62.1962 18.1632C62.967 18.5796 63.5738 19.1554 64.0167 19.8907C64.4597 20.6172 64.6812 21.4366 64.6812 22.3491C64.6812 23.2615 64.4597 24.0854 64.0167 24.8207C63.5738 25.5471 62.967 26.1185 62.1962 26.5349C61.4255 26.9513 60.5573 27.1595 59.5917 27.1595ZM59.5917 25.3257C60.141 25.3257 60.6371 25.2016 61.08 24.9536C61.523 24.6967 61.8685 24.3423 62.1165 23.8905C62.3734 23.4387 62.5019 22.9249 62.5019 22.3491C62.5019 21.7732 62.3734 21.2594 62.1165 20.8076C61.8685 20.3558 61.523 20.0059 61.08 19.7578C60.6371 19.5009 60.141 19.3725 59.5917 19.3725C59.0425 19.3725 58.5464 19.5009 58.1034 19.7578C57.6605 20.0059 57.3106 20.3558 57.0536 20.8076C56.8056 21.2594 56.6816 21.7732 56.6816 22.3491C56.6816 22.9249 56.8056 23.4387 57.0536 23.8905C57.3106 24.3423 57.6605 24.6967 58.1034 24.9536C58.5464 25.2016 59.0425 25.3257 59.5917 25.3257Z" fill="#201E1F"/>
<path d="M132.374 16.0135C132.679 16.0135 132.954 16.0844 133.201 16.2262C133.45 16.3679 133.646 16.5636 133.788 16.8132C133.93 17.0597 134 17.3339 134 17.6359C134 17.9379 133.928 18.2152 133.783 18.4678C133.638 18.7174 133.441 18.9146 133.192 19.0595C132.942 19.2043 132.666 19.2767 132.364 19.2767C132.062 19.2767 131.787 19.2043 131.537 19.0595C131.29 18.9146 131.095 18.7174 130.95 18.4678C130.808 18.2183 130.737 17.944 130.737 17.6451C130.737 17.3462 130.808 17.072 130.95 16.8224C131.095 16.5728 131.292 16.3756 131.542 16.2308C131.791 16.086 132.068 16.0135 132.374 16.0135ZM132.364 19.0225C132.62 19.0225 132.851 18.9609 133.058 18.8376C133.267 18.7144 133.432 18.548 133.552 18.3384C133.672 18.1258 133.732 17.8916 133.732 17.6359C133.732 17.3801 133.674 17.149 133.557 16.9426C133.44 16.733 133.278 16.5682 133.071 16.448C132.865 16.3278 132.632 16.2678 132.374 16.2678C132.115 16.2678 131.88 16.3294 131.671 16.4526C131.461 16.5728 131.297 16.7377 131.176 16.9472C131.059 17.1567 131.001 17.3894 131.001 17.6451C131.001 17.9009 131.059 18.1335 131.176 18.3431C131.297 18.5526 131.46 18.719 131.666 18.8422C131.876 18.9624 132.109 19.0225 132.364 19.0225ZM133.21 17.3678C133.21 17.5034 133.178 17.6189 133.113 17.7145C133.051 17.81 132.962 17.8824 132.845 17.9317L133.252 18.5557H132.854L132.494 18.001H132.082V18.5557H131.685V16.7346H132.443C132.68 16.7346 132.867 16.7916 133.002 16.9056C133.141 17.0196 133.21 17.1737 133.21 17.3678ZM132.42 17.6913C132.549 17.6913 132.649 17.6636 132.72 17.6082C132.791 17.5496 132.826 17.4695 132.826 17.3678C132.826 17.2661 132.791 17.1875 132.72 17.1321C132.649 17.0766 132.549 17.0489 132.42 17.0489H132.078V17.6913H132.42Z" fill="#201E1F"/>
<path d="M75.1354 27.1596C74.2053 27.1596 73.3637 26.9558 72.6107 26.5483C71.8665 26.132 71.2818 25.565 70.8566 24.8474C70.4314 24.121 70.2188 23.306 70.2188 22.4024C70.2188 21.4988 70.4314 20.6882 70.8566 19.9706C71.2818 19.2442 71.8709 18.6772 72.6239 18.2697C73.3769 17.8533 74.2185 17.6451 75.1487 17.6451C75.8752 17.6451 76.5396 17.7692 77.142 18.0172C77.7444 18.2564 78.2582 18.6152 78.6834 19.0936L77.8197 19.9307C77.1198 19.1954 76.2472 18.8278 75.2019 18.8278C74.5109 18.8278 73.8863 18.9828 73.3282 19.2929C72.7701 19.603 72.3316 20.0326 72.0127 20.5819C71.7026 21.1223 71.5476 21.7291 71.5476 22.4024C71.5476 23.0756 71.7026 23.6869 72.0127 24.2362C72.3316 24.7766 72.7701 25.2018 73.3282 25.5118C73.8863 25.8219 74.5109 25.9769 75.2019 25.9769C76.2384 25.9769 77.111 25.6049 77.8197 24.8607L78.6834 25.6979C78.2582 26.1763 77.74 26.5395 77.1287 26.7875C76.5263 27.0356 75.8619 27.1596 75.1354 27.1596Z" fill="#201E1F"/>
<path d="M87.0159 24.7278H82.0727L81.0495 27.0533H79.6808L83.8932 17.7514H85.2087L89.4344 27.0533H88.0391L87.0159 24.7278ZM86.5509 23.6648L84.5443 19.1069L82.5378 23.6648H86.5509Z" fill="#201E1F"/>
<path d="M95.1806 17.7514C96.3854 17.7514 97.3333 18.0394 98.0243 18.6152C98.7153 19.191 99.0608 19.9839 99.0608 20.9938C99.0608 22.0037 98.7153 22.7966 98.0243 23.3724C97.3333 23.9482 96.3854 24.2362 95.1806 24.2362H92.8817V27.0533H91.5529V17.7514H95.1806ZM95.1407 23.0801C95.9823 23.0801 96.6246 22.9029 97.0675 22.5485C97.5105 22.1853 97.732 21.6671 97.732 20.9938C97.732 20.3205 97.5105 19.8067 97.0675 19.4524C96.6246 19.0891 95.9823 18.9075 95.1407 18.9075H92.8817V23.0801H95.1407Z" fill="#201E1F"/>
<path d="M101.744 17.7514H103.073V27.0533H101.744V17.7514Z" fill="#201E1F"/>
<path d="M108.436 18.9075H105.246V17.7514H112.94V18.9075H109.751V27.0533H108.436V18.9075Z" fill="#201E1F"/>
<path d="M120.578 24.7278H115.635L114.611 27.0533H113.243L117.455 17.7514H118.771L122.996 27.0533H121.601L120.578 24.7278ZM120.113 23.6648L118.106 19.1069L116.1 23.6648H120.113Z" fill="#201E1F"/>
<path d="M125.115 17.7514H126.444V25.8972H131.48V27.0533H125.115V17.7514Z" fill="#201E1F"/>
</g>
</svg>
