<svg width="197" height="43" viewBox="0 0 197 43" fill="none" xmlns="http://www.w3.org/2000/svg">
<path d="M12.0832 8.9513L12.3324 8.88149L12.5545 8.78094C12.8026 8.64654 13.0356 8.48767 13.2766 8.34118L13.8732 7.99345C14.1197 7.85188 14.3646 7.70733 14.6191 7.58024C14.8624 7.45866 15.113 7.35349 15.365 7.25131C15.6117 7.15121 15.8604 7.05648 16.1109 6.96608L16.5584 6.81318C17.0017 6.66416 17.4458 6.50991 17.901 6.40027C18.0492 6.36461 18.1981 6.33373 18.3485 6.30867L18.796 6.24676L19.0944 6.20335C19.2432 6.18113 19.392 6.15666 19.5419 6.14234C19.79 6.11862 20.0388 6.11833 20.2878 6.11713L21.1828 6.11698L21.9287 6.11713C22.1275 6.11758 22.3268 6.11668 22.5254 6.13041C22.8257 6.15084 23.1221 6.20514 23.4204 6.24318C23.6197 6.26854 23.8198 6.28212 24.0171 6.3215C24.2698 6.37207 24.5143 6.45606 24.763 6.52244L25.2105 6.63537L25.5089 6.71905L25.9564 6.86345C26.2574 6.96608 26.5558 7.07438 26.8514 7.19164C27.205 7.33171 27.5554 7.47895 27.8957 7.64901C28.2012 7.80176 28.4974 7.97152 28.7907 8.14635C29.095 8.32775 29.3959 8.51437 29.6858 8.71844C29.9404 8.89775 30.187 9.08839 30.4316 9.28113C30.7889 9.56232 31.1429 9.84799 31.4759 10.1581C31.6276 10.2994 31.7754 10.4453 31.9212 10.5928C32.0656 10.739 32.208 10.887 32.3454 11.0397C32.5622 11.2804 32.7653 11.5326 32.967 11.7856C33.2006 12.0786 33.4321 12.3741 33.648 12.6807C33.8187 12.9231 33.9766 13.1732 34.1306 13.4265C34.3951 13.8624 34.6469 14.3058 34.8608 14.7691C34.9513 14.9654 35.0347 15.1652 35.1151 15.3658L35.291 15.8133C35.3657 16.0108 35.435 16.2101 35.5031 16.41L35.6526 16.8576C35.7171 17.0545 35.7815 17.2511 35.8377 17.4505L35.9025 17.7287L35.9359 17.9509L35.9511 18.2001H29.6858L29.6518 17.9509L29.5906 17.7287L29.4841 17.4505C29.4179 17.3008 29.3471 17.1532 29.2739 17.0067C29.1467 16.7519 29.0131 16.5001 28.8581 16.2609C28.6896 16.0004 28.4986 15.7568 28.3041 15.5156C28.1846 15.3673 28.0596 15.2225 27.9324 15.0809C27.8102 14.9448 27.6855 14.8115 27.5547 14.6838C27.422 14.5546 27.2841 14.4311 27.144 14.3103C27 14.1863 26.8543 14.0629 26.7021 13.9491L26.4039 13.7312C26.2075 13.5988 26.012 13.4644 25.8072 13.3449C25.516 13.1752 25.2192 13.0159 24.9122 12.8764C24.6205 12.7441 24.3206 12.6344 24.0171 12.5321C23.7711 12.4492 23.524 12.368 23.2713 12.3082C23.0743 12.2616 22.8742 12.2291 22.6746 12.1966C22.4265 12.156 22.1796 12.1146 21.9287 12.0974C21.6808 12.0802 21.4312 12.0832 21.1828 12.0841L20.7353 12.0898L20.4369 12.1093C20.2369 12.1257 20.0386 12.1641 19.8402 12.1927C19.5911 12.2287 19.3402 12.2548 19.0944 12.3098C18.8412 12.3665 18.594 12.4493 18.3485 12.5321C18.0451 12.6343 17.7451 12.7441 17.4534 12.8764C17.0401 13.0642 16.641 13.2842 16.26 13.5308C15.9505 13.7313 15.6528 13.9481 15.3711 14.1863C15.1265 14.3933 14.8958 14.6156 14.6728 14.8455L14.4699 15.0675L14.632 15.3167L14.6962 15.3894L14.8162 15.5384L15.0754 15.8111L15.3657 16.0844L15.6633 16.3328C15.8074 16.4463 15.9578 16.5537 16.1109 16.6547C16.4007 16.8462 16.6953 17.0281 17.0059 17.1844C17.2488 17.3066 17.4997 17.4114 17.7518 17.5133C17.9972 17.6124 18.2439 17.7107 18.4977 17.7868C18.6938 17.8457 18.8937 17.8898 19.0944 17.9306C19.2925 17.9709 19.4918 18.0053 19.6911 18.0389L20.1386 18.1121L20.4369 18.1575L20.7353 18.1867L21.0336 18.1979L21.6303 18.2003C21.8292 18.2007 22.0285 18.1998 22.227 18.2136C22.3773 18.2237 22.5254 18.2431 22.6746 18.2634L22.9729 18.3068C23.2208 18.3372 23.4701 18.352 23.7188 18.3747L24.0171 18.4187C24.3713 18.483 24.716 18.5919 25.0614 18.6911C25.3606 18.777 25.6619 18.8564 25.9564 18.9578C26.1576 19.027 26.3557 19.1056 26.5531 19.1853C26.7536 19.2663 26.9532 19.3495 27.1498 19.4396C27.4015 19.5548 27.6482 19.6805 27.8957 19.8042C28.2479 19.9804 28.6011 20.1546 28.9399 20.3562C29.1426 20.4767 29.3406 20.6057 29.5366 20.7367L29.9841 21.0403L30.2825 21.2587C30.4874 21.4122 30.6824 21.5798 30.8792 21.7438C31.1844 21.9981 31.4881 22.2537 31.772 22.532C31.9179 22.6751 32.0593 22.8225 32.1964 22.9739C32.3285 23.1198 32.4545 23.2707 32.5813 23.4212C32.788 23.6666 32.9961 23.912 33.1909 24.1671C33.3389 24.3609 33.4772 24.5615 33.6134 24.7638L33.9086 25.2113C34.0669 25.457 34.2199 25.706 34.3693 25.9572C34.5432 26.2499 34.7131 26.5444 34.8591 26.8523C34.9518 27.0478 35.0347 27.2482 35.1151 27.449L35.291 27.8965C35.3657 28.094 35.435 28.2933 35.5031 28.4932L35.7506 29.2391C35.8603 29.5825 35.9635 29.9289 36.0315 30.2833C36.079 30.5302 36.1052 30.7805 36.1407 31.0292C36.1762 31.2777 36.2189 31.5243 36.236 31.775C36.2498 31.9736 36.2489 32.1729 36.2493 32.3717L36.2495 33.2668L36.2493 34.1618C36.2489 34.3607 36.2498 34.56 36.236 34.7585C36.216 35.0512 36.161 35.3388 36.1256 35.6297L36.1065 35.8518L36.1003 36.1011L36.3496 35.9391L36.4224 35.8748L36.5717 35.7549L36.8476 35.4956L37.1314 35.2053C37.3117 35.0133 37.4824 34.813 37.6493 34.6094C37.8488 34.3662 38.0407 34.1171 38.2268 33.8635C38.3694 33.669 38.5019 33.467 38.6361 33.2668C38.8351 32.9702 39.0328 32.6726 39.225 32.3717C39.3505 32.1753 39.4704 31.9751 39.5904 31.775C39.7082 31.5784 39.8235 31.38 39.9327 31.1783L40.164 30.7308C40.2624 30.5338 40.3579 30.3355 40.4469 30.1341C40.5989 29.7903 40.7347 29.4391 40.8739 29.0899L41.1088 28.4932C41.2007 28.2462 41.2872 27.9975 41.3705 27.7473C41.4364 27.5498 41.4994 27.351 41.5559 27.1506C41.6115 26.9533 41.6615 26.7543 41.7055 26.5539L41.866 25.808L42.004 25.2113L42.0964 24.7638C42.1257 24.6154 42.1535 24.4664 42.1733 24.3163L42.2036 24.018C42.2164 23.8191 42.2218 23.6197 42.2417 23.4212C42.2616 23.2215 42.296 23.0234 42.323 22.8246L42.3523 22.5262C42.3659 22.3277 42.365 22.1284 42.3655 21.9295L42.3656 21.0345L42.3655 20.1394C42.365 19.9406 42.3659 19.7411 42.3523 19.5427C42.3385 19.3421 42.3086 19.1447 42.2793 18.946L42.2164 18.4985L42.1759 18.2001L41.9799 17.0067C41.9376 16.7576 41.9011 16.5069 41.8431 16.2609C41.7953 16.059 41.7322 15.862 41.6705 15.6642L41.5338 15.2166L41.4073 14.7691C41.3488 14.5686 41.2865 14.3695 41.2177 14.1724C41.0772 13.7696 40.9134 13.3749 40.7545 12.979C40.5928 12.5762 40.4311 12.1741 40.2369 11.7856C40.0588 11.4294 39.8556 11.087 39.6581 10.7414C39.5152 10.4915 39.3753 10.2402 39.2234 9.99552L38.934 9.548C38.7669 9.29709 38.5975 9.04812 38.4234 8.80213L38.0947 8.3546C37.8692 8.05148 37.6441 7.74657 37.3981 7.45955C37.1757 7.19999 36.9361 6.95713 36.6964 6.71368L36.1003 6.11698L35.6528 5.67005C35.4093 5.43033 35.1664 5.19076 34.9069 4.96834C34.714 4.80305 34.5125 4.64895 34.3102 4.49545L33.7135 4.05121C33.4682 3.87309 33.2193 3.70065 32.9676 3.53193C32.7219 3.3671 32.4741 3.20584 32.2217 3.05144C32.0262 2.93165 31.8242 2.82216 31.625 2.70834C31.3286 2.53888 31.0357 2.3627 30.73 2.20995C30.4379 2.06391 30.1348 1.94218 29.8349 1.81329L29.2382 1.55582C28.9911 1.45318 28.743 1.35189 28.4924 1.25762C28.2953 1.18348 28.0969 1.11172 27.8957 1.04937L27.1498 0.833063C26.8519 0.748034 26.5555 0.657039 26.2548 0.581855C25.7628 0.458935 25.263 0.370026 24.763 0.287234C24.5645 0.254266 24.366 0.217569 24.1663 0.192656L23.868 0.162822C23.6691 0.150142 23.4697 0.144622 23.2713 0.124782L22.5254 0.0261778C22.3268 0.00723263 22.128 0.00320486 21.9287 0.00141477L21.332 0.000818394C20.9841 0.000967569 20.6344 -0.00738649 20.2878 0.0261778C20.0877 0.0455705 19.889 0.0797326 19.6911 0.113446C19.4919 0.147309 19.2904 0.175801 19.0944 0.225029L18.796 0.304986L18.3485 0.448939C18.1479 0.515471 17.9478 0.585733 17.7518 0.665094C17.4977 0.768024 17.2509 0.886618 17.0059 1.00909C16.7003 1.16199 16.3971 1.32042 16.1109 1.50763C15.8515 1.67724 15.6079 1.86819 15.3651 2.06062C15.1644 2.21964 14.9658 2.38403 14.7817 2.5623C14.5052 2.82977 14.2613 3.12901 14.0247 3.43184C13.8735 3.62547 13.7217 3.82088 13.59 4.02854C13.4967 4.17547 13.4071 4.3236 13.3231 4.47606L13.0914 4.92358L12.8756 5.37111C12.8089 5.51834 12.7473 5.66767 12.6895 5.81863C12.6142 6.01524 12.5471 6.21529 12.4816 6.41533C12.4173 6.61224 12.3544 6.80975 12.309 7.01203C12.254 7.25787 12.2279 7.50878 12.1919 7.7579L12.1257 8.2017L12.0966 8.47991C12.0823 8.63595 12.0864 8.79512 12.0832 8.9513ZM6.11616 6.26616C5.82229 6.56078 5.52409 6.85212 5.24588 7.16195C5.02972 7.40257 4.82655 7.65423 4.62501 7.90708C4.39096 8.20065 4.16287 8.49826 3.94239 8.80213C3.80053 8.99769 3.66612 9.19863 3.53111 9.39883C3.39835 9.59559 3.26737 9.79384 3.14222 9.99552C2.99036 10.2402 2.85043 10.4915 2.70752 10.7414C2.53806 11.0378 2.36188 11.3308 2.20913 11.6364C2.06309 11.9285 1.94136 12.2317 1.81247 12.5315L1.555 13.1282C1.41179 13.4731 1.27097 13.8198 1.1479 14.1724C1.07913 14.3696 1.01678 14.5686 0.9583 14.7691L0.831797 15.2166L0.558659 16.1117L0.482728 16.41C0.424699 16.6566 0.379649 16.9059 0.339372 17.1559L0.278956 17.6034L0.173936 18.3493L0.124414 18.946C0.0923414 19.2453 0.0338621 19.5405 0.0134252 19.8411C-0.000298895 20.0396 0.000597755 20.2389 0.000150231 20.4378L0 21.1836L0.000150231 21.9295C0.000597755 22.1284 -0.000298895 22.3277 0.0134252 22.5262C0.0338621 22.8268 0.0923414 23.122 0.124414 23.4212L0.173936 24.018C0.203472 24.268 0.245693 24.5154 0.286417 24.7638L0.360108 25.2113L0.436189 25.6589C0.462145 25.8086 0.487651 25.9584 0.522558 26.1064C0.570294 26.3082 0.633396 26.5053 0.695155 26.7031L0.831797 27.1506L0.9583 27.5981L1.09718 28.0457C1.23189 28.4499 1.39165 28.8457 1.555 29.2391L1.74818 29.6866L1.93942 30.1341L2.13618 30.5816C2.28223 30.8889 2.45303 31.1819 2.62234 31.4767L2.79255 31.775C2.90712 31.9752 3.0193 32.1766 3.14222 32.3717C3.39745 32.777 3.66552 33.1743 3.94224 33.5651L4.27087 34.0127C4.49643 34.3158 4.72153 34.6207 4.96752 34.9077C5.23558 35.2205 5.52752 35.511 5.81796 35.8028L6.56369 36.5485C6.85547 36.8389 7.14592 37.1309 7.45874 37.3989C7.74575 37.6449 8.05066 37.87 8.35378 38.0956L8.80131 38.4242C9.19215 38.7009 9.5894 38.969 9.99471 39.2242C10.1898 39.3471 10.3912 39.4595 10.5914 39.5739L10.8898 39.7441C11.0879 39.8582 11.2851 39.9744 11.4865 40.0827C11.7784 40.2395 12.0769 40.3821 12.3815 40.5126C12.6772 40.6393 12.9778 40.7555 13.2766 40.8747C13.671 41.0319 14.0651 41.1892 14.4699 41.3179L15.365 41.5788C15.663 41.6682 15.9569 41.7723 16.26 41.8439C16.506 41.9021 16.7569 41.9385 17.0059 41.9807L18.1993 42.1767L18.4977 42.2173L18.9452 42.2801C19.1439 42.3095 19.3412 42.3393 19.5419 42.353C19.7404 42.3667 19.9397 42.3657 20.1386 42.3663L20.7353 42.3664L21.332 42.3663C21.5308 42.3657 21.7303 42.367 21.9287 42.353C22.2815 42.3284 22.6267 42.2562 22.9729 42.1874C23.374 42.1078 23.7773 42.0339 24.1663 41.9055C24.368 41.839 24.5668 41.7606 24.763 41.6795L25.0614 41.5551C25.2129 41.4865 25.3627 41.4166 25.5089 41.3371C25.714 41.2254 25.9111 41.0999 26.1056 40.9708C26.3079 40.8365 26.5069 40.6972 26.7023 40.5531C27.0123 40.3244 27.3148 40.0856 27.5915 39.817C27.8266 39.5887 28.0407 39.3419 28.2434 39.0846C28.4687 38.7986 28.6814 38.5006 28.8707 38.1895C29.0179 37.948 29.1477 37.6965 29.2742 37.4437C29.3967 37.1987 29.5157 36.9518 29.6182 36.6978C29.7166 36.4538 29.7987 36.2043 29.8728 35.9519C29.9306 35.7553 29.9704 35.5542 30.0186 35.3552L30.0932 35.0569C30.1448 34.8592 30.201 34.6623 30.234 34.4605C30.2904 34.1151 30.2816 33.7646 30.2825 33.416L30.0332 33.4983L29.9604 33.5371L29.8111 33.6071C29.5162 33.7744 29.2303 33.9566 28.9399 34.1314C28.6936 34.2797 28.4458 34.4247 28.194 34.5633C27.9985 34.671 27.7981 34.7715 27.5973 34.8691C27.401 34.9645 27.2029 35.0564 27.0006 35.1386C26.8039 35.2186 26.6032 35.2891 26.4039 35.3622L25.8072 35.5762L25.5089 35.667L25.0614 35.7834L24.6138 35.8887L24.1663 35.9816L23.5696 36.101C23.3221 36.1488 23.0749 36.1997 22.8237 36.2248C22.5758 36.2497 22.3267 36.2489 22.0779 36.2501L21.1828 36.2503L20.2878 36.2501C20.0889 36.2497 19.8896 36.2506 19.6911 36.2369C19.4403 36.2197 19.1937 36.177 18.9452 36.1415L18.3485 36.0586L18.0501 36.0015C17.5427 35.8914 17.0498 35.7192 16.5584 35.5541L16.1109 35.4012C15.8604 35.3108 15.6119 35.2159 15.365 35.116C15.0622 34.9933 14.7623 34.8644 14.4699 34.7183C14.1644 34.5655 13.8682 34.3957 13.5749 34.2209C13.2706 34.0395 12.9697 33.8529 12.6799 33.6488C12.4252 33.4695 12.1786 33.2789 11.934 33.0861C11.5767 32.8049 11.2227 32.5193 10.8898 32.2091C10.738 32.0679 10.5902 31.922 10.4445 31.7744C10.3001 31.6284 10.1576 31.4801 10.0202 31.3275C9.76125 31.0399 9.51958 30.7365 9.28031 30.4325C9.08757 30.1878 8.89693 29.9412 8.71762 29.6866C8.51355 29.3967 8.32693 29.0959 8.14554 28.7915C7.9707 28.4983 7.80094 28.202 7.64819 27.8965C7.45426 27.5086 7.28883 27.1074 7.13219 26.7031C7.03657 26.4565 6.94692 26.208 6.86263 25.9572C6.77969 25.7108 6.69988 25.4635 6.63499 25.2116L6.5349 24.7705L6.41451 24.1671H12.6799L12.7139 24.4164L12.775 24.6385L12.8817 24.9167L13.0191 25.2116C13.0954 25.3625 13.1738 25.5119 13.2576 25.6589C13.5273 26.1318 13.8379 26.5805 14.1858 26.9992C14.3448 27.1907 14.5116 27.3751 14.683 27.5555L14.811 27.6835L14.9428 27.8085C15.0823 27.9354 15.223 28.0607 15.3672 28.1823C15.6526 28.4231 15.9463 28.6559 16.26 28.859C16.4528 28.9837 16.6539 29.093 16.8567 29.2L17.0059 29.2749L17.3043 29.4208C17.452 29.4903 17.6004 29.5579 17.7518 29.619C17.948 29.6982 18.148 29.7676 18.3485 29.8352L18.796 29.9791L19.0944 30.0591C19.2904 30.1083 19.4919 30.1368 19.6911 30.1707C19.889 30.2044 20.0877 30.2387 20.2878 30.2579C20.5357 30.2819 20.7848 30.283 21.0336 30.283C21.2825 30.283 21.5316 30.2819 21.7795 30.2579C21.9296 30.2435 22.0782 30.219 22.227 30.1953L22.6746 30.122C23.1263 30.046 23.5784 29.9638 24.0171 29.8299C24.2184 29.7685 24.4195 29.7 24.6138 29.619L24.9122 29.4909L25.3597 29.2749L25.8072 29.0396L26.1056 28.859L26.2548 28.7587C26.4063 28.6518 26.5552 28.5424 26.7023 28.4293L26.9999 28.1942L27.1468 28.0748L27.4232 27.831L27.5411 27.7042L27.6343 27.5726L27.7156 27.294L27.6949 27.1484L27.6343 27.001L27.4232 26.7053L27.1468 26.4186L26.8513 26.155C26.6618 25.996 26.4611 25.8488 26.2548 25.7126C26.0119 25.5521 25.7659 25.3966 25.5089 25.2595C25.2669 25.1305 25.0166 25.0189 24.763 24.9152C24.5662 24.8347 24.3672 24.7611 24.1663 24.6916L23.868 24.5975L23.5696 24.5099C23.4212 24.4682 23.2729 24.4252 23.1221 24.3925C22.8758 24.3391 22.6253 24.3118 22.3762 24.2759C22.1277 24.2401 21.8811 24.1977 21.6303 24.1805C21.4318 24.1668 21.2325 24.1677 21.0336 24.1673C20.6856 24.1665 20.3373 24.172 19.9894 24.1613C19.7889 24.155 19.591 24.1316 19.3927 24.1033L18.9452 24.0299L18.3485 23.9305C18.0485 23.8797 17.7479 23.8339 17.4534 23.756C17.2015 23.6893 16.9548 23.6029 16.7076 23.5208C16.4578 23.4375 16.2086 23.3538 15.9617 23.2625C15.7597 23.1878 15.563 23.1002 15.365 23.0155C15.0137 22.8651 14.6587 22.7219 14.3208 22.5426C14.0666 22.4079 13.8201 22.2571 13.5749 22.1069C13.3232 21.9528 13.0755 21.793 12.829 21.6306L12.3815 21.327L12.0832 21.1086C11.881 20.9508 11.6835 20.7877 11.4865 20.6235C11.2857 20.4561 11.0837 20.2896 10.8899 20.114C10.7385 19.977 10.5911 19.8355 10.448 19.6896C10.1697 19.4058 9.91415 19.1022 9.65981 18.7968C9.49587 18.6001 9.32819 18.4051 9.17469 18.2001C8.9569 17.9094 8.75327 17.6091 8.55427 17.3051C8.36169 17.0108 8.17701 16.7118 7.99651 16.41C7.87956 16.2145 7.76529 16.0171 7.6631 15.8133C7.54123 15.57 7.43934 15.3173 7.33194 15.0675L7.07834 14.4708L6.96571 14.1724C6.85876 13.8776 6.76224 13.5786 6.67482 13.2774L6.55996 12.8298L6.48105 12.5315L6.35395 12.084L6.29428 11.7856L6.27503 11.6364L6.22327 11.1889C6.18926 10.9404 6.14674 10.6937 6.12959 10.443C6.1193 10.2942 6.1181 10.1447 6.11676 9.99552L6.11616 9.39883V8.50378L6.11676 8.05625L6.12959 7.60873L6.15868 7.31053L6.21775 6.87166L6.22804 6.61239L6.20612 6.49245L6.20104 6.42816L6.11616 6.26616Z" fill="url(#paint0_linear)"/>
<path d="M193.911 5.15862C194.49 5.15862 195.014 5.29314 195.482 5.56218C195.955 5.83122 196.327 6.20261 196.596 6.67636C196.865 7.14425 196.999 7.66479 196.999 8.23796C196.999 8.81114 196.862 9.33752 196.587 9.81712C196.312 10.2909 195.938 10.6652 195.464 10.9401C194.99 11.215 194.467 11.3524 193.894 11.3524C193.321 11.3524 192.797 11.215 192.323 10.9401C191.856 10.6652 191.484 10.2909 191.209 9.81712C190.94 9.34337 190.806 8.82283 190.806 8.25551C190.806 7.68818 190.94 7.16765 191.209 6.6939C191.484 6.22016 191.858 5.84584 192.332 5.57095C192.806 5.29606 193.332 5.15862 193.911 5.15862ZM193.894 10.8699C194.379 10.8699 194.818 10.7529 195.21 10.519C195.607 10.285 195.92 9.96918 196.148 9.57147C196.377 9.16791 196.491 8.72341 196.491 8.23796C196.491 7.75252 196.379 7.31387 196.157 6.922C195.935 6.52429 195.628 6.21138 195.236 5.98328C194.844 5.75518 194.403 5.64113 193.911 5.64113C193.42 5.64113 192.976 5.75811 192.578 5.99206C192.18 6.22016 191.867 6.53306 191.639 6.93077C191.417 7.32849 191.306 7.77007 191.306 8.25551C191.306 8.74095 191.417 9.18253 191.639 9.58024C191.867 9.97795 192.177 10.2938 192.569 10.5277C192.967 10.7558 193.408 10.8699 193.894 10.8699ZM195.499 7.72912C195.499 7.98647 195.438 8.20579 195.315 8.3871C195.198 8.56841 195.028 8.70586 194.806 8.79944L195.578 9.9838H194.824L194.139 8.93104H193.359V9.9838H192.604V6.52721H194.043C194.493 6.52721 194.847 6.63541 195.104 6.85182C195.368 7.06822 195.499 7.36066 195.499 7.72912ZM193.999 8.34324C194.245 8.34324 194.435 8.2906 194.569 8.18532C194.704 8.0742 194.771 7.92213 194.771 7.72912C194.771 7.53612 194.704 7.38697 194.569 7.2817C194.435 7.17642 194.245 7.12378 193.999 7.12378H193.35V8.34324H193.999Z" fill="#363636"/>
<path d="M70.9523 24.4914C70.9523 26.5238 70.1736 28.0943 68.6163 29.2029C67.0854 30.3115 65.0794 30.8658 62.5983 30.8658C58.9293 30.8658 56.1183 29.9024 54.165 27.9755L56.8177 25.3228C58.1903 26.7218 60.1171 27.4212 62.5983 27.4212C63.918 27.4212 64.9738 27.1969 65.7657 26.7482C66.5839 26.273 66.993 25.5736 66.993 24.6497C66.993 23.2508 66.0956 22.459 64.3007 22.2742L61.0937 21.997C57.1345 21.6275 55.1549 19.7799 55.1549 16.4541C55.1549 14.5273 55.8675 13.0227 57.2929 11.9405C58.7182 10.8583 60.5262 10.3172 62.717 10.3172C65.9636 10.3172 68.4448 11.0695 70.1604 12.574L67.6265 15.1475C66.4651 14.1709 64.8154 13.6826 62.6774 13.6826C61.4897 13.6826 60.579 13.9202 59.9456 14.3953C59.3385 14.844 59.0349 15.4643 59.0349 16.2561C59.0349 16.9688 59.2461 17.5099 59.6684 17.8794C60.1171 18.2226 60.8298 18.4469 61.8064 18.5525L64.6175 18.7901C68.8407 19.1596 70.9523 21.06 70.9523 24.4914Z" fill="#363636"/>
<path d="M89.8389 30.6282H85.8796V28.807C85.1405 29.546 84.3619 30.0739 83.5436 30.3907C82.7518 30.7074 81.7488 30.8658 80.5346 30.8658C78.159 30.8658 76.3642 30.2587 75.15 29.0445C74.0942 27.9359 73.5663 26.4974 73.5663 24.7289C73.5663 22.9869 74.1602 21.5879 75.348 20.5321C76.5622 19.4763 78.291 18.9484 80.5346 18.9484H85.8004V17.5231C85.8004 16.2297 85.4573 15.2795 84.771 14.6724C84.0847 14.0653 82.9629 13.7618 81.4056 13.7618C80.3498 13.7618 79.492 13.9202 78.8321 14.2369C78.1986 14.5273 77.5916 15.0288 77.0109 15.7414L74.3978 13.2471C75.3216 12.1649 76.3114 11.4126 77.3672 10.9903C78.4494 10.5416 79.8483 10.3172 81.564 10.3172C87.0806 10.3172 89.8389 12.6136 89.8389 17.2063V30.6282ZM85.8004 23.3828V21.7595H81.1681C78.7133 21.7595 77.486 22.7229 77.486 24.6497C77.486 26.5502 78.7529 27.5004 81.2869 27.5004C82.897 27.5004 84.1111 27.1177 84.9294 26.3522C85.5101 25.7979 85.8004 24.8081 85.8004 23.3828Z" fill="#363636"/>
<path d="M111.546 30.6282H107.508V18.3941C107.508 16.8896 107.138 15.7678 106.399 15.0288C105.66 14.2897 104.684 13.9202 103.47 13.9202C102.255 13.9202 101.252 14.3029 100.46 15.0684C99.695 15.8074 99.3123 16.916 99.3123 18.3941V30.6282H95.2739V10.5548H99.2331V12.574C100.632 11.0695 102.414 10.3172 104.578 10.3172C106.611 10.3172 108.26 10.9243 109.527 12.1385C110.873 13.4583 111.546 15.3455 111.546 17.8002V30.6282Z" fill="#363636"/>
<path d="M131.832 24.4914C131.832 26.5238 131.053 28.0943 129.496 29.2029C127.965 30.3115 125.959 30.8658 123.478 30.8658C119.809 30.8658 116.998 29.9024 115.045 27.9755L117.697 25.3228C119.07 26.7218 120.997 27.4212 123.478 27.4212C124.798 27.4212 125.854 27.1969 126.645 26.7482C127.464 26.273 127.873 25.5736 127.873 24.6497C127.873 23.2508 126.975 22.459 125.18 22.2742L121.973 21.997C118.014 21.6275 116.035 19.7799 116.035 16.4541C116.035 14.5273 116.747 13.0227 118.173 11.9405C119.598 10.8583 121.406 10.3172 123.597 10.3172C126.843 10.3172 129.324 11.0695 131.04 12.574L128.506 15.1475C127.345 14.1709 125.695 13.6826 123.557 13.6826C122.369 13.6826 121.459 13.9202 120.825 14.3953C120.218 14.844 119.915 15.4643 119.915 16.2561C119.915 16.9688 120.126 17.5099 120.548 17.8794C120.997 18.2226 121.71 18.4469 122.686 18.5525L125.497 18.7901C129.72 19.1596 131.832 21.06 131.832 24.4914Z" fill="#363636"/>
<path d="M150.719 30.6282H146.759V28.807C146.02 29.546 145.242 30.0739 144.423 30.3907C143.632 30.7074 142.629 30.8658 141.414 30.8658C139.039 30.8658 137.244 30.2587 136.03 29.0445C134.974 27.9359 134.446 26.4974 134.446 24.7289C134.446 22.9869 135.04 21.5879 136.228 20.5321C137.442 19.4763 139.171 18.9484 141.414 18.9484H146.68V17.5231C146.68 16.2297 146.337 15.2795 145.651 14.6724C144.964 14.0653 143.843 13.7618 142.285 13.7618C141.23 13.7618 140.372 13.9202 139.712 14.2369C139.078 14.5273 138.471 15.0288 137.891 15.7414L135.277 13.2471C136.201 12.1649 137.191 11.4126 138.247 10.9903C139.329 10.5416 140.728 10.3172 142.444 10.3172C147.96 10.3172 150.719 12.6136 150.719 17.2063V30.6282ZM146.68 23.3828V21.7595H142.048C139.593 21.7595 138.366 22.7229 138.366 24.6497C138.366 26.5502 139.633 27.5004 142.167 27.5004C143.777 27.5004 144.991 27.1177 145.809 26.3522C146.39 25.7979 146.68 24.8081 146.68 23.3828Z" fill="#363636"/>
<path d="M170.249 12.2177L167.2 15.2663C166.302 14.3689 165.299 13.9202 164.191 13.9202C163.056 13.9202 162.106 14.3425 161.34 15.1871C160.575 16.0054 160.192 17.0876 160.192 18.4337V30.6282H156.154V10.5548H160.113V12.7324C160.641 12.0197 161.38 11.439 162.33 10.9903C163.307 10.5416 164.349 10.3172 165.458 10.3172C167.385 10.3172 168.982 10.9507 170.249 12.2177Z" fill="#363636"/>
<path d="M187.142 30.6282H183.183V28.807C182.444 29.546 181.665 30.0739 180.847 30.3907C180.055 30.7074 179.052 30.8658 177.838 30.8658C175.462 30.8658 173.668 30.2587 172.453 29.0445C171.398 27.9359 170.87 26.4974 170.87 24.7289C170.87 22.9869 171.464 21.5879 172.651 20.5321C173.865 19.4763 175.594 18.9484 177.838 18.9484H183.104V17.5231C183.104 16.2297 182.761 15.2795 182.074 14.6724C181.388 14.0653 180.266 13.7618 178.709 13.7618C177.653 13.7618 176.795 13.9202 176.135 14.2369C175.502 14.5273 174.895 15.0288 174.314 15.7414L171.701 13.2471C172.625 12.1649 173.615 11.4126 174.671 10.9903C175.753 10.5416 177.152 10.3172 178.867 10.3172C184.384 10.3172 187.142 12.6136 187.142 17.2063V30.6282ZM183.104 23.3828V21.7595H178.471C176.017 21.7595 174.789 22.7229 174.789 24.6497C174.789 26.5502 176.056 27.5004 178.59 27.5004C180.2 27.5004 181.414 27.1177 182.233 26.3522C182.813 25.7979 183.104 24.8081 183.104 23.3828Z" fill="#363636"/>
<defs>
<linearGradient id="paint0_linear" x1="3.19758" y1="-2.59734" x2="47.1616" y2="42.3664" gradientUnits="userSpaceOnUse">
<stop stop-color="#1A9561"/>
<stop offset="1" stop-color="#25C984"/>
</linearGradient>
</defs>
</svg>
