<svg width="153" height="33" viewBox="0 0 153 33" fill="none" xmlns="http://www.w3.org/2000/svg">
<path d="M9.36927 6.94084L9.56255 6.8867L9.73479 6.80874C9.92715 6.70452 10.1078 6.58133 10.2946 6.46775L10.7573 6.19812C10.9484 6.08835 11.1383 5.97626 11.3357 5.87771C11.5243 5.78344 11.7186 5.70189 11.914 5.62266C12.1053 5.54505 12.2982 5.4716 12.4924 5.4015L12.8394 5.28294C13.1831 5.16738 13.5275 5.04778 13.8804 4.96276C13.9954 4.93512 14.1108 4.91117 14.2274 4.89174L14.5744 4.84374L14.8058 4.81008C14.9212 4.79284 15.0365 4.77387 15.1528 4.76277C15.3451 4.74438 15.5381 4.74415 15.7311 4.74322L16.4251 4.74311L17.0035 4.74322C17.1577 4.74357 17.3122 4.74287 17.4662 4.75352C17.699 4.76936 17.9289 4.81147 18.1602 4.84096C18.3147 4.86063 18.4698 4.87115 18.6229 4.90169C18.8188 4.9409 19.0084 5.00602 19.2012 5.0575L19.5482 5.14506L19.7796 5.20995L20.1266 5.32192C20.36 5.4015 20.5913 5.48547 20.8206 5.57639C21.0947 5.68501 21.3664 5.79917 21.6303 5.93104C21.8672 6.04948 22.0969 6.18112 22.3243 6.31668C22.5603 6.45734 22.7936 6.60204 23.0183 6.76027C23.2158 6.89931 23.407 7.04714 23.5967 7.19658C23.8737 7.41462 24.1482 7.63613 24.4064 7.87661C24.524 7.98615 24.6386 8.09927 24.7516 8.21367C24.8636 8.32703 24.9741 8.44177 25.0806 8.56022C25.2487 8.74679 25.4062 8.94239 25.5626 9.13857C25.7437 9.36574 25.9233 9.59488 26.0906 9.83259C26.223 10.0205 26.3455 10.2145 26.4648 10.4109C26.6699 10.7489 26.8652 11.0927 27.031 11.452C27.1013 11.6042 27.1659 11.7591 27.2283 11.9146L27.3646 12.2617C27.4226 12.4148 27.4763 12.5693 27.5291 12.7243L27.645 13.0713C27.695 13.224 27.745 13.3765 27.7886 13.5311L27.8388 13.7469L27.8647 13.9191L27.8765 14.1124H23.0183L22.992 13.9191L22.9445 13.7469L22.8619 13.5311C22.8106 13.415 22.7558 13.3006 22.699 13.187C22.6003 12.9895 22.4968 12.7942 22.3766 12.6087C22.2459 12.4067 22.0978 12.2178 21.947 12.0308C21.8543 11.9158 21.7574 11.8035 21.6587 11.6937C21.564 11.5882 21.4673 11.4848 21.3659 11.3858C21.263 11.2856 21.156 11.1899 21.0474 11.0962C20.9358 11 20.8228 10.9044 20.7048 10.8161L20.4736 10.6471C20.3213 10.5445 20.1697 10.4403 20.0109 10.3477C19.7851 10.216 19.5549 10.0925 19.3169 9.98435C19.0908 9.88175 18.8581 9.79673 18.6229 9.71738C18.4321 9.65307 18.2405 9.59014 18.0445 9.54376C17.8918 9.50767 17.7366 9.48245 17.5818 9.45724C17.3895 9.42578 17.198 9.39362 17.0035 9.38032C16.8112 9.36701 16.6177 9.36933 16.4251 9.37002L16.0781 9.37442L15.8468 9.38957C15.6917 9.40229 15.538 9.43202 15.3841 9.45423C15.1909 9.48211 14.9964 9.50235 14.8058 9.54503C14.6095 9.58899 14.4178 9.65318 14.2274 9.71738C13.9921 9.79661 13.7595 9.88175 13.5334 9.98435C13.2129 10.13 12.9035 10.3006 12.608 10.4918C12.368 10.6473 12.1371 10.8153 11.9188 11C11.7291 11.1606 11.5502 11.3329 11.3773 11.5112L11.22 11.6833L11.3456 11.8766L11.3955 11.9329L11.4885 12.0485L11.6895 12.2599L11.9146 12.4718L12.1454 12.6644C12.2571 12.7524 12.3737 12.8357 12.4924 12.914C12.7171 13.0626 12.9456 13.2036 13.1864 13.3248C13.3747 13.4195 13.5692 13.5008 13.7647 13.5798C13.955 13.6566 14.1463 13.7329 14.3431 13.7919C14.4952 13.8375 14.6502 13.8718 14.8058 13.9034C14.9594 13.9346 15.1139 13.9613 15.2684 13.9873L15.6155 14.0441L15.8468 14.0793L16.0781 14.102L16.3095 14.1106L16.7722 14.1125C16.9263 14.1128 17.0809 14.1121 17.2348 14.1228C17.3513 14.1307 17.4662 14.1457 17.5818 14.1614L17.8132 14.1951C18.0054 14.2187 18.1987 14.2301 18.3915 14.2477L18.6229 14.2818C18.8975 14.3317 19.1648 14.4161 19.4326 14.493C19.6646 14.5597 19.8982 14.6212 20.1266 14.6999C20.2826 14.7535 20.4362 14.8145 20.5893 14.8763C20.7447 14.9391 20.8995 15.0036 21.0519 15.0735C21.2471 15.1628 21.4384 15.2603 21.6303 15.3562C21.9034 15.4928 22.1773 15.6279 22.44 15.7842C22.5972 15.8776 22.7507 15.9777 22.9027 16.0792L23.2497 16.3146L23.481 16.484C23.6399 16.603 23.7911 16.733 23.9437 16.8601C24.1804 17.0573 24.4159 17.2555 24.636 17.4713C24.7491 17.5822 24.8588 17.6965 24.9651 17.8139C25.0675 17.9271 25.1652 18.0441 25.2635 18.1608C25.4238 18.3511 25.5852 18.5414 25.7362 18.7392C25.851 18.8894 25.9582 19.045 26.0638 19.2019L26.2927 19.5489C26.4154 19.7394 26.5341 19.9324 26.6499 20.1272C26.7848 20.3542 26.9165 20.5825 27.0298 20.8212C27.1016 20.9729 27.1659 21.1282 27.2283 21.2839L27.3646 21.6309C27.4226 21.7841 27.4763 21.9386 27.5291 22.0936L27.721 22.672C27.806 22.9382 27.8861 23.2068 27.9388 23.4817C27.9756 23.6731 27.996 23.8672 28.0235 24.06C28.051 24.2527 28.0841 24.4439 28.0974 24.6383C28.108 24.7923 28.1073 24.9468 28.1077 25.101L28.1078 25.795L28.1077 26.4891C28.1073 26.6433 28.108 26.7978 28.0974 26.9518C28.0819 27.1787 28.0392 27.4017 28.0118 27.6273L27.997 27.7995L27.9921 27.9928L28.1854 27.8672L28.2419 27.8173L28.3577 27.7243L28.5717 27.5233L28.7917 27.2982C28.9315 27.1493 29.0638 26.994 29.1933 26.8361C29.3479 26.6475 29.4968 26.4544 29.641 26.2577C29.7516 26.1069 29.8543 25.9503 29.9584 25.795C30.1127 25.5651 30.266 25.3343 30.4151 25.101C30.5124 24.9487 30.6054 24.7935 30.6984 24.6383C30.7897 24.4859 30.8791 24.3321 30.9638 24.1757L31.1431 23.8287C31.2195 23.6759 31.2935 23.5221 31.3625 23.366C31.4804 23.0994 31.5857 22.8271 31.6936 22.5563L31.8758 22.0936C31.947 21.9021 32.0141 21.7092 32.0786 21.5153C32.1298 21.3621 32.1786 21.2079 32.2224 21.0526C32.2656 20.8995 32.3043 20.7452 32.3384 20.5899L32.4629 20.0116L32.5699 19.5489L32.6415 19.2019C32.6643 19.0868 32.6858 18.9712 32.7012 18.8548L32.7247 18.6235C32.7346 18.4693 32.7388 18.3147 32.7542 18.1608C32.7697 18.0059 32.7963 17.8523 32.8172 17.6981L32.84 17.4668C32.8505 17.3129 32.8498 17.1583 32.8502 17.0041L32.8503 16.3101L32.8502 15.6161C32.8498 15.4619 32.8505 15.3073 32.84 15.1534C32.8292 14.9978 32.8061 14.8448 32.7833 14.6907L32.7346 14.3437L32.7032 14.1124L32.5512 13.187C32.5184 12.9938 32.4901 12.7994 32.4451 12.6087C32.4081 12.4522 32.3591 12.2994 32.3113 12.146L32.2053 11.799L32.1072 11.452C32.0619 11.2965 32.0135 11.1421 31.9602 10.9893C31.8512 10.677 31.7242 10.3709 31.601 10.0639C31.4757 9.75162 31.3503 9.43977 31.1997 9.13857C31.0616 8.86235 30.904 8.59688 30.7509 8.32888C30.6401 8.13513 30.5316 7.94023 30.4138 7.75053L30.1894 7.40352C30.0599 7.20896 29.9285 7.01591 29.7935 6.82517L29.5387 6.47816C29.3638 6.24311 29.1892 6.00668 28.9985 5.78414C28.826 5.58287 28.6402 5.39456 28.4544 5.20579L27.9921 4.74311L27.6451 4.39656C27.4564 4.21068 27.268 4.02491 27.0668 3.85245C26.9172 3.72428 26.761 3.6048 26.6041 3.48577L26.1414 3.14131C25.9513 3.0032 25.7582 2.86948 25.5631 2.73866C25.3726 2.61084 25.1804 2.4858 24.9847 2.36609C24.8331 2.2732 24.6765 2.1883 24.522 2.10004C24.2922 1.96864 24.065 1.83204 23.828 1.71359C23.6015 1.60035 23.3665 1.50596 23.134 1.40602L22.6713 1.20638C22.4797 1.1268 22.2873 1.04826 22.093 0.975155C21.9402 0.917667 21.7863 0.86203 21.6303 0.81368L21.0519 0.645957C20.8209 0.580025 20.5911 0.509468 20.3579 0.45117C19.9764 0.355858 19.5889 0.286918 19.2012 0.222721C19.0473 0.197158 18.8934 0.168703 18.7385 0.149386L18.5072 0.126252C18.353 0.11642 18.1984 0.11214 18.0445 0.0967556L17.4662 0.0202983C17.3122 0.00560818 17.158 0.00248505 17.0035 0.00109701L16.5408 0.000634582C16.2711 0.000750252 15.9999 -0.00572748 15.7311 0.0202983C15.576 0.0353354 15.4219 0.0618246 15.2684 0.087966C15.114 0.114223 14.9578 0.136316 14.8058 0.174487L14.5744 0.236486L14.2274 0.348107C14.0718 0.399696 13.9167 0.454177 13.7647 0.515714C13.5677 0.595526 13.3763 0.687483 13.1864 0.782449C12.9494 0.90101 12.7143 1.02385 12.4924 1.16902C12.2912 1.30053 12.1023 1.44859 11.9141 1.59781C11.7584 1.72111 11.6045 1.84858 11.4617 1.98681C11.2473 2.1942 11.0582 2.42623 10.8747 2.66105C10.7575 2.81118 10.6398 2.96271 10.5377 3.12373C10.4654 3.23766 10.3958 3.35252 10.3307 3.47074L10.1511 3.81775L9.98371 4.16476C9.93201 4.27892 9.88423 4.39471 9.83947 4.51177C9.78106 4.66422 9.729 4.81933 9.67822 4.97445C9.62837 5.12713 9.57956 5.28028 9.5444 5.43713C9.50171 5.62775 9.48147 5.82231 9.4536 6.01548L9.40224 6.35959L9.37968 6.57532C9.36858 6.69631 9.37182 6.81973 9.36927 6.94084ZM4.74247 4.85878C4.5146 5.08722 4.28337 5.31313 4.06765 5.55337C3.90004 5.73995 3.7425 5.93508 3.58623 6.13115C3.40475 6.35878 3.22789 6.58955 3.05693 6.82517C2.94693 6.97681 2.84271 7.13262 2.73802 7.28785C2.63508 7.44041 2.53352 7.59414 2.43647 7.75053C2.31872 7.94023 2.21022 8.13513 2.09941 8.32888C1.96801 8.55871 1.8314 8.78589 1.71296 9.0229C1.59972 9.24938 1.50533 9.48442 1.40539 9.71692L1.20575 10.1796C1.0947 10.447 0.985509 10.7158 0.890082 10.9893C0.836758 11.1422 0.788408 11.2965 0.743065 11.452L0.644975 11.799L0.433184 12.493L0.374307 12.7243C0.329312 12.9155 0.294379 13.1088 0.263149 13.3027L0.216302 13.6497L0.13487 14.228L0.0964705 14.6907C0.0716015 14.9228 0.0262567 15.1517 0.0104099 15.3847C-0.000231763 15.5387 0.000463499 15.6932 0.000116489 15.8474L0 16.4258L0.000116489 17.0041C0.000463499 17.1583 -0.000231763 17.3129 0.0104099 17.4668C0.0262567 17.6999 0.0716015 17.9288 0.0964705 18.1608L0.13487 18.6235C0.157772 18.8174 0.19051 19.0093 0.222088 19.2019L0.279228 19.5489L0.33822 19.8959C0.358347 20.012 0.378124 20.1281 0.405191 20.2429C0.442205 20.3994 0.491135 20.5522 0.539023 20.7056L0.644975 21.0526L0.743065 21.3996L0.850754 21.7466C0.955204 22.0601 1.07909 22.3669 1.20575 22.672L1.35554 23.019L1.50383 23.366L1.6564 23.713C1.76964 23.9513 1.90208 24.1784 2.03336 24.407L2.16534 24.6383C2.25418 24.7936 2.34116 24.9497 2.43647 25.101C2.63438 25.4153 2.84224 25.7233 3.05681 26.0264L3.31163 26.3734C3.48653 26.6084 3.66107 26.8449 3.85181 27.0674C4.05967 27.31 4.28604 27.5352 4.51125 27.7614L5.08948 28.3397C5.31573 28.5649 5.54094 28.7913 5.7835 28.9991C6.00605 29.1898 6.24248 29.3644 6.47752 29.5393L6.82453 29.7941C7.12759 30.0087 7.43562 30.2165 7.74989 30.4144C7.90119 30.5098 8.05734 30.5969 8.21257 30.6856L8.44391 30.8176C8.59752 30.906 8.75044 30.9962 8.90659 31.0801C9.13296 31.2017 9.36441 31.3123 9.60061 31.4135C9.82987 31.5117 10.0629 31.6018 10.2946 31.6942C10.6005 31.8161 10.9061 31.9381 11.22 32.0379L11.914 32.2402C12.1451 32.3095 12.373 32.3902 12.608 32.4457C12.7988 32.4908 12.9933 32.5191 13.1864 32.5518L14.1117 32.7038L14.3431 32.7353L14.6901 32.7839C14.8442 32.8067 14.9972 32.8299 15.1528 32.8405C15.3067 32.8512 15.4613 32.8503 15.6155 32.8508L16.0781 32.8509L16.5408 32.8508C16.695 32.8503 16.8496 32.8514 17.0035 32.8405C17.2771 32.8214 17.5447 32.7654 17.8132 32.7121C18.1242 32.6503 18.4369 32.5931 18.7385 32.4935C18.8949 32.4419 19.0491 32.3812 19.2012 32.3183L19.4326 32.2218C19.5501 32.1686 19.6662 32.1145 19.7796 32.0528C19.9386 31.9662 20.0914 31.8689 20.2423 31.7687C20.3991 31.6646 20.5534 31.5566 20.7049 31.4448C20.9453 31.2675 21.1799 31.0823 21.3944 30.8741C21.5767 30.697 21.7427 30.5057 21.8999 30.3062C22.0746 30.0844 22.2395 29.8533 22.3863 29.6122C22.5005 29.4249 22.6011 29.2299 22.6992 29.0338C22.7942 28.8439 22.8865 28.6524 22.9659 28.4555C23.0423 28.2662 23.1059 28.0728 23.1634 27.8771C23.2081 27.7247 23.239 27.5687 23.2764 27.4144L23.3342 27.1831C23.3742 27.0298 23.4179 26.8771 23.4434 26.7206C23.4871 26.4529 23.4803 26.181 23.481 25.9107L23.2877 25.9746L23.2313 26.0046L23.1155 26.0589C22.8868 26.1887 22.6652 26.3299 22.44 26.4655C22.249 26.5804 22.0569 26.6929 21.8616 26.8003C21.71 26.8839 21.5546 26.9618 21.399 27.0375C21.2467 27.1115 21.0931 27.1827 20.9363 27.2465C20.7837 27.3085 20.6281 27.3632 20.4736 27.4199L20.0109 27.5857L19.7796 27.6562L19.4326 27.7464L19.0856 27.8281L18.7385 27.9001L18.2759 27.9927C18.084 28.0298 17.8923 28.0692 17.6975 28.0887C17.5053 28.108 17.3121 28.1074 17.1192 28.1083L16.4251 28.1085L15.7311 28.1083C15.5769 28.108 15.4224 28.1087 15.2684 28.098C15.074 28.0847 14.8828 28.0517 14.6901 28.0241L14.2274 27.9598L13.9961 27.9155C13.6026 27.8301 13.2204 27.6967 12.8394 27.5686L12.4924 27.4501C12.2982 27.38 12.1054 27.3064 11.914 27.2289C11.6792 27.1338 11.4467 27.0339 11.22 26.9205C10.9831 26.8021 10.7534 26.6704 10.526 26.5349C10.29 26.3942 10.0567 26.2495 9.83195 26.0913C9.6345 25.9522 9.4433 25.8044 9.2536 25.655C8.97657 25.4369 8.70209 25.2154 8.44391 24.975C8.32627 24.8654 8.21165 24.7523 8.09864 24.6379C7.98667 24.5246 7.8762 24.4097 7.76967 24.2913C7.56887 24.0683 7.38148 23.8331 7.19595 23.5973C7.0465 23.4076 6.89867 23.2164 6.75964 23.019C6.6014 22.7942 6.4567 22.5609 6.31605 22.3249C6.18048 22.0975 6.04885 21.8678 5.9304 21.6309C5.78003 21.3302 5.65175 21.019 5.5303 20.7056C5.45615 20.5144 5.38664 20.3217 5.32128 20.1272C5.25697 19.9361 5.19509 19.7444 5.14477 19.5491L5.06716 19.2071L4.97381 18.7392H9.83195L9.85832 18.9325L9.90575 19.1047L9.98845 19.3204L10.095 19.5491C10.1542 19.666 10.2149 19.7819 10.2799 19.8959C10.4891 20.2626 10.7299 20.6105 10.9996 20.9352C11.1229 21.0837 11.2523 21.2267 11.3852 21.3665L11.4844 21.4658L11.5867 21.5627C11.6948 21.6611 11.8039 21.7583 11.9157 21.8526C12.137 22.0392 12.3648 22.2198 12.608 22.3772C12.7575 22.4739 12.9134 22.5587 13.0707 22.6417L13.1864 22.6997L13.4177 22.8128C13.5322 22.8667 13.6473 22.9191 13.7647 22.9666C13.9168 23.028 14.072 23.0818 14.2274 23.1342L14.5744 23.2458L14.8058 23.3078C14.9578 23.346 15.114 23.3681 15.2684 23.3943C15.4219 23.4205 15.576 23.4471 15.7311 23.462C15.9234 23.4806 16.1165 23.4814 16.3095 23.4814C16.5024 23.4814 16.6956 23.4806 16.8878 23.462C17.0042 23.4508 17.1194 23.4318 17.2348 23.4134L17.5818 23.3566C17.9321 23.2976 18.2827 23.2339 18.6229 23.1301C18.7789 23.0825 18.9348 23.0294 19.0856 22.9666L19.3169 22.8672L19.6639 22.6997L20.0109 22.5173L20.2423 22.3772L20.3579 22.2995C20.4754 22.2166 20.5909 22.1318 20.7049 22.0441L20.9357 21.8618L21.0496 21.7692L21.264 21.5802L21.3553 21.4818L21.4276 21.3798L21.4907 21.1637L21.4746 21.0508L21.4276 20.9366L21.264 20.7073L21.0496 20.485L20.8205 20.2806C20.6736 20.1573 20.5179 20.0431 20.3579 19.9375C20.1696 19.8131 19.9789 19.6925 19.7796 19.5862C19.592 19.4862 19.3979 19.3997 19.2012 19.3193C19.0487 19.2568 18.8944 19.1998 18.7385 19.1459L18.5072 19.0729L18.2759 19.005C18.1608 18.9726 18.0458 18.9393 17.9289 18.914C17.7379 18.8725 17.5437 18.8514 17.3505 18.8235C17.1578 18.7957 16.9666 18.7629 16.7722 18.7496C16.6182 18.7389 16.4637 18.7396 16.3095 18.7393C16.0396 18.7387 15.7695 18.743 15.4998 18.7347C15.3443 18.7298 15.1908 18.7116 15.0371 18.6897L14.6901 18.6328L14.2274 18.5557C13.9948 18.5163 13.7617 18.4808 13.5334 18.4204C13.338 18.3687 13.1467 18.3017 12.955 18.238C12.7614 18.1734 12.5681 18.1085 12.3767 18.0378C12.2201 17.9798 12.0675 17.9119 11.914 17.8462C11.6416 17.7296 11.3663 17.6186 11.1043 17.4795C10.9072 17.3751 10.7161 17.2581 10.526 17.1417C10.3308 17.0222 10.1387 16.8983 9.94762 16.7723L9.60061 16.5369L9.36927 16.3676C9.21254 16.2452 9.05939 16.1188 8.90659 15.9914C8.7509 15.8617 8.59428 15.7326 8.44403 15.5964C8.32662 15.4901 8.21234 15.3805 8.10141 15.2673C7.88557 15.0472 7.68743 14.8118 7.49021 14.5751C7.36309 14.4225 7.23308 14.2713 7.11405 14.1124C6.94517 13.8869 6.78728 13.6541 6.63298 13.4184C6.48365 13.1901 6.34045 12.9583 6.20049 12.7243C6.10981 12.5727 6.0212 12.4197 5.94197 12.2617C5.84747 12.073 5.76846 11.8771 5.68518 11.6833L5.48854 11.2206L5.40121 10.9893C5.31828 10.7607 5.24344 10.5288 5.17565 10.2953L5.08659 9.94826L5.0254 9.71692L4.92685 9.36991L4.88058 9.13857L4.86566 9.0229L4.82552 8.67589C4.79915 8.48318 4.76618 8.29186 4.75288 8.09754C4.7449 7.9821 4.74397 7.8662 4.74293 7.75053L4.74247 7.28785V6.59383L4.74293 6.24682L4.75288 5.89981L4.77544 5.66858L4.82124 5.32828L4.82922 5.12725L4.81222 5.03425L4.80829 4.98439L4.74247 4.85878Z" fill="url(#paint0_linear)"/>
<path d="M150.359 4C150.808 4 151.214 4.10431 151.577 4.31292C151.944 4.52154 152.232 4.80951 152.441 5.17686C152.65 5.53966 152.754 5.94329 152.754 6.38772C152.754 6.83216 152.647 7.24032 152.434 7.6122C152.221 7.97954 151.931 8.26979 151.563 8.48294C151.196 8.69609 150.79 8.80266 150.346 8.80266C149.901 8.80266 149.495 8.69609 149.128 8.48294C148.765 8.26979 148.477 7.97954 148.264 7.6122C148.055 7.24486 147.951 6.84123 147.951 6.40133C147.951 5.96143 148.055 5.5578 148.264 5.19046C148.477 4.82312 148.767 4.53287 149.135 4.31972C149.502 4.10657 149.91 4 150.359 4ZM150.346 8.42852C150.722 8.42852 151.062 8.33781 151.366 8.15641C151.674 7.97501 151.917 7.73011 152.094 7.42173C152.271 7.1088 152.359 6.76414 152.359 6.38772C152.359 6.01131 152.273 5.67118 152.101 5.36733C151.928 5.05894 151.69 4.81632 151.387 4.63945C151.083 4.46258 150.74 4.37414 150.359 4.37414C149.978 4.37414 149.634 4.46485 149.325 4.64625C149.017 4.82312 148.774 5.06575 148.597 5.37413C148.425 5.68252 148.339 6.02492 148.339 6.40133C148.339 6.77774 148.425 7.12014 148.597 7.42853C148.774 7.73691 149.015 7.98181 149.319 8.16321C149.627 8.34008 149.969 8.42852 150.346 8.42852ZM151.591 5.99317C151.591 6.19272 151.543 6.36278 151.448 6.50337C151.357 6.64396 151.226 6.75053 151.053 6.82309L151.652 7.74145H151.067L150.536 6.92513H149.931V7.74145H149.346V5.06121H150.461C150.811 5.06121 151.085 5.14511 151.284 5.31291C151.489 5.48071 151.591 5.70746 151.591 5.99317ZM150.427 6.46936C150.618 6.46936 150.765 6.42854 150.87 6.34691C150.974 6.26074 151.026 6.14283 151.026 5.99317C151.026 5.84351 150.974 5.72787 150.87 5.64624C150.765 5.56461 150.618 5.52379 150.427 5.52379H149.924V6.46936H150.427Z" fill="#363636"/>
<path d="M55.0168 18.9906C55.0168 20.5666 54.4131 21.7843 53.2055 22.6439C52.0184 23.5035 50.463 23.9333 48.5391 23.9333C45.6942 23.9333 43.5145 23.1863 42 21.6922L44.0569 19.6353C45.1212 20.7201 46.6152 21.2624 48.5391 21.2624C49.5624 21.2624 50.3811 21.0885 50.9951 20.7405C51.6296 20.3721 51.9468 19.8298 51.9468 19.1134C51.9468 18.0287 51.2509 17.4147 49.8592 17.2714L47.3725 17.0565C44.3025 16.77 42.7675 15.3373 42.7675 12.7585C42.7675 11.2644 43.3201 10.0978 44.4253 9.2587C45.5305 8.41957 46.9325 8 48.6312 8C51.1486 8 53.0725 8.5833 54.4028 9.7499L52.438 11.7454C51.5375 10.9881 50.2583 10.6095 48.6005 10.6095C47.6795 10.6095 46.9734 10.7937 46.4822 11.1621C46.0115 11.51 45.7761 11.991 45.7761 12.605C45.7761 13.1576 45.9398 13.5772 46.2673 13.8637C46.6152 14.1298 47.1678 14.3037 47.9251 14.3856L50.1048 14.5698C53.3795 14.8563 55.0168 16.3299 55.0168 18.9906Z" fill="#363636"/>
<path d="M69.6615 23.7491H66.5915V22.3369C66.0184 22.91 65.4146 23.3193 64.7802 23.5649C64.1662 23.8105 63.3884 23.9333 62.4469 23.9333C60.6049 23.9333 59.2132 23.4626 58.2717 22.5211C57.4531 21.6615 57.0437 20.5461 57.0437 19.1748C57.0437 17.824 57.5042 16.7393 58.4252 15.9206C59.3667 15.1019 60.7073 14.6926 62.4469 14.6926H66.5301V13.5874C66.5301 12.5845 66.264 11.8477 65.7319 11.377C65.1997 10.9063 64.3299 10.6709 63.1224 10.6709C62.3037 10.6709 61.6385 10.7937 61.1268 11.0393C60.6356 11.2644 60.1649 11.6533 59.7146 12.2059L57.6884 10.2718C58.4048 9.43267 59.1723 8.84937 59.9909 8.5219C60.8301 8.17397 61.9148 8 63.2452 8C67.5227 8 69.6615 9.7806 69.6615 13.3418V23.7491ZM66.5301 18.131V16.8723H62.9382C61.0347 16.8723 60.083 17.6193 60.083 19.1134C60.083 20.587 61.0654 21.3238 63.0303 21.3238C64.2787 21.3238 65.2202 21.0271 65.8547 20.4335C66.3049 20.0037 66.5301 19.2362 66.5301 18.131Z" fill="#363636"/>
<path d="M86.4935 23.7491H83.3621V14.2628C83.3621 13.0962 83.0755 12.2264 82.5025 11.6533C81.9294 11.0802 81.1721 10.7937 80.2307 10.7937C79.2892 10.7937 78.5115 11.0905 77.8975 11.684C77.3039 12.2571 77.0072 13.1167 77.0072 14.2628V23.7491H73.8758V8.1842H76.9458V9.7499C78.0305 8.5833 79.412 8 81.0903 8C82.6662 8 83.9454 8.47073 84.9278 9.4122C85.9716 10.4355 86.4935 11.8989 86.4935 13.8023V23.7491Z" fill="#363636"/>
<path d="M102.223 18.9906C102.223 20.5666 101.619 21.7843 100.412 22.6439C99.2246 23.5035 97.6691 23.9333 95.7452 23.9333C92.9004 23.9333 90.7206 23.1863 89.2061 21.6922L91.263 19.6353C92.3273 20.7201 93.8214 21.2624 95.7452 21.2624C96.7686 21.2624 97.5872 21.0885 98.2012 20.7405C98.8357 20.3721 99.1529 19.8298 99.1529 19.1134C99.1529 18.0287 98.4571 17.4147 97.0653 17.2714L94.5786 17.0565C91.5086 16.77 89.9736 15.3373 89.9736 12.7585C89.9736 11.2644 90.5262 10.0978 91.6314 9.2587C92.7366 8.41957 94.1386 8 95.8373 8C98.3547 8 100.279 8.5833 101.609 9.7499L99.6441 11.7454C98.7436 10.9881 97.4644 10.6095 95.8066 10.6095C94.8856 10.6095 94.1795 10.7937 93.6883 11.1621C93.2176 11.51 92.9822 11.991 92.9822 12.605C92.9822 13.1576 93.146 13.5772 93.4734 13.8637C93.8214 14.1298 94.374 14.3037 95.1312 14.3856L97.3109 14.5698C100.586 14.8563 102.223 16.3299 102.223 18.9906Z" fill="#363636"/>
<path d="M116.868 23.7491H113.798V22.3369C113.225 22.91 112.621 23.3193 111.986 23.5649C111.372 23.8105 110.595 23.9333 109.653 23.9333C107.811 23.9333 106.419 23.4626 105.478 22.5211C104.659 21.6615 104.25 20.5461 104.25 19.1748C104.25 17.824 104.71 16.7393 105.631 15.9206C106.573 15.1019 107.913 14.6926 109.653 14.6926H113.736V13.5874C113.736 12.5845 113.47 11.8477 112.938 11.377C112.406 10.9063 111.536 10.6709 110.328 10.6709C109.51 10.6709 108.845 10.7937 108.333 11.0393C107.842 11.2644 107.371 11.6533 106.921 12.2059L104.895 10.2718C105.611 9.43267 106.378 8.84937 107.197 8.5219C108.036 8.17397 109.121 8 110.451 8C114.729 8 116.868 9.7806 116.868 13.3418V23.7491ZM113.736 18.131V16.8723H110.144C108.241 16.8723 107.289 17.6193 107.289 19.1134C107.289 20.587 108.272 21.3238 110.236 21.3238C111.485 21.3238 112.426 21.0271 113.061 20.4335C113.511 20.0037 113.736 19.2362 113.736 18.131Z" fill="#363636"/>
<path d="M132.011 9.4736L129.647 11.8375C128.951 11.1416 128.174 10.7937 127.314 10.7937C126.434 10.7937 125.697 11.1212 125.104 11.7761C124.51 12.4106 124.213 13.2497 124.213 14.2935V23.7491H121.082V8.1842H124.152V9.8727C124.561 9.3201 125.134 8.86983 125.871 8.5219C126.628 8.17397 127.437 8 128.296 8C129.79 8 131.029 8.4912 132.011 9.4736Z" fill="#363636"/>
<path d="M145.11 23.7491H142.04V22.3369C141.467 22.91 140.864 23.3193 140.229 23.5649C139.615 23.8105 138.837 23.9333 137.896 23.9333C136.054 23.9333 134.662 23.4626 133.721 22.5211C132.902 21.6615 132.493 20.5461 132.493 19.1748C132.493 17.824 132.953 16.7393 133.874 15.9206C134.816 15.1019 136.156 14.6926 137.896 14.6926H141.979V13.5874C141.979 12.5845 141.713 11.8477 141.181 11.377C140.649 10.9063 139.779 10.6709 138.571 10.6709C137.753 10.6709 137.087 10.7937 136.576 11.0393C136.085 11.2644 135.614 11.6533 135.164 12.2059L133.137 10.2718C133.854 9.43267 134.621 8.84937 135.44 8.5219C136.279 8.17397 137.364 8 138.694 8C142.972 8 145.11 9.7806 145.11 13.3418V23.7491ZM141.979 18.131V16.8723H138.387C136.484 16.8723 135.532 17.6193 135.532 19.1134C135.532 20.587 136.514 21.3238 138.479 21.3238C139.728 21.3238 140.669 21.0271 141.304 20.4335C141.754 20.0037 141.979 19.2362 141.979 18.131Z" fill="#363636"/>
<defs>
<linearGradient id="paint0_linear" x1="2.4794" y1="-2.01398" x2="36.5691" y2="32.8509" gradientUnits="userSpaceOnUse">
<stop stop-color="#1A9561"/>
<stop offset="1" stop-color="#25C984"/>
</linearGradient>
</defs>
</svg>
